# Max2Obj Version 4.0 Mar 10th, 2001
#
# object ST02_01 to come ...
#
v  -42.570885 0 59.117226
v  52.647659 0 58.569275
v  -51.361282 0 -83.651535
v  -92.245644 395.157776 87.663025
v  -76.267303 458.131165 87.663033
v  -50.472637 467.860474 114.535721
v  -30.884636 500 100
v  32.730072 491.061127 100
v  46.949841 465.615234 100
v  73.892548 455.137512 100
v  82.125038 400.503693 100
v  100 382.541901 100
v  -88.004723 144.291107 91.711998
v  -37.273293 123.949158 100
v  44.639214 113.556465 86.775375
v  -100 479.03949 32.227295
v  -92.245651 500 54.276718
v  -92.245651 450.794739 71.773712
v  -92.245651 487.517761 74.186958
v  -100 436.89566 20.701662
v  -100 409.585236 -0.490116
v  -100 354.983154 -7.969298
v  -100 316.07312 -2.983063
v  -100 221.64473 -26.668062
v  -100 156.494278 -16.69524
v  -100 126.630562 -17.941633
v  -100 122.257622 21.948177
v  -88.004723 128.358948 66.015724
v  -6.015522 111.577354 61.425598
v  -64.64212 129.389297 75.235962
v  -70.003708 115.216965 51.917854
v  -72.882156 110.966087 7.398176
v  -81.418892 126.630562 -31.16626
v  -81.418892 156.494278 -29.919868
v  -81.418892 221.64473 -39.892693
v  -81.418892 316.07312 -16.207691
v  -81.418892 354.983154 -21.193928
v  -81.418892 409.585236 -13.714745
v  -81.418892 436.89566 7.477034
v  -69.909744 487.914612 11.347397
v  -81.418892 467.023254 -26.84761
v  -81.418892 445.603363 -30.467415
v  -81.418892 404.524017 -60.631973
v  -81.418892 341.201843 -66.664932
v  -81.418892 316.59787 -92.003494
v  -81.418892 240.611176 -99.243057
v  -81.418892 216.142212 -113.224625
v  69.684357 157.888885 92.758179
v  63.370068 232.743027 94.481689
v  84.832405 276.669556 97.714996
v  85.728271 331.861298 98.773262
v  95.315659 345.078705 99.597351
v  -5.014973 0 78.091103
v  -65.278824 0 3.957913
v  108.321793 0 22.060575
v  65.812744 491.061127 44.444691
v  106.97522 455.137512 44.444691
v  115.207703 400.503693 44.444691
v  130.396347 157.888885 40.897713
v  117.766289 232.743027 45.404198
v  117.91507 276.669556 42.159687
v  128.398331 345.078705 44.042042
v  -100 319.995972 100
v  11.44647 302.897766 123.975807
v  -100 208.141296 100
v  13.963636 190.823242 120.440521
v  -7.466273 398.73642 126.279297
v  28.887754 0 -137.49411
v  -24.664146 467.023254 -51.365307
v  -24.664146 404.524017 -85.149673
v  -24.664146 341.201843 -91.182632
v  -24.664146 240.611176 -123.760757
v  -7.312942 186.264099 -134.188095
v  89.128937 0 -128.3004
v  40.640846 384.20993 -73.451019
v  40.640846 320.887756 -79.483978
v  55.711998 240.611176 -113.702408
v  85.681076 186.264099 -118.656784
v  126.679108 0 -51.086582
v  66.819489 456.260315 -10.566957
v  87.896866 410.038483 -45.923615
v  100.866348 380.189606 -48.396065
v  148.549927 138.03743 -49.65551
v  125.77906 197.214417 -41.721958
v  125.494431 266.039978 -55.580193
v  107.27478 324.764618 -59.932362
v  -11.823044 495.89505 -10.620443
v  40.640846 446.709167 -39.666656
v  -10.378221 506.477112 31.278687
# 89 vertices

vt  1 0 0
vt  0 0 0
vt  1 0 0
vt  0 0.830944 0
vt  1 0.830944 0
vt  0.079892 0.916262 0
vt  0.270736 0.935721 0
vt  0.345577 1 0
vt  0.66365 0.982122 0
vt  0.734749 0.93123 0
vt  0.869463 0.910275 0
vt  0.910625 0.801007 0
vt  1 0.765084 0
vt  0 0.258779 0
vt  1 0.258779 0
vt  0.313634 0.223155 0
vt  0.630291 0.227113 0
vt  0.661137 0.958079 0
vt  0.833068 1 0
vt  0.920553 0.901589 0
vt  0.93262 0.975036 0
vt  0.603508 0.873791 0
vt  0.497549 0.81917 0
vt  0.460154 0.709966 0
vt  0.485085 0.632146 0
vt  0.36666 0.443289 0
vt  0.416524 0.312989 0
vt  0.410292 0.253261 0
vt  0.609741 0.221932 0
vt  0.871519 0.230434 0
vt  0.313634 0.223155 0
vt  0 0.258779 0
vt  1 0.258779 0
vt  0.871519 0.230434 0
vt  0.609741 0.221932 0
vt  0.410292 0.253261 0
vt  0.416524 0.312989 0
vt  0.36666 0.443289 0
vt  0.485085 0.632146 0
vt  0.460154 0.709966 0
vt  0.497549 0.81917 0
vt  0.603508 0.873791 0
vt  0.661137 0.958079 0
vt  0.431885 0.934047 0
vt  0.413786 0.891207 0
vt  0.262963 0.809048 0
vt  0.232798 0.682404 0
vt  0.106106 0.633196 0
vt  0.069908 0.481222 0
vt  0 0.432284 0
vt  0.797547 0.315778 0
vt  0.778763 0.465306 0
vt  0.900868 0.553367 0
vt  0.916136 0.663737 0
vt  0.969771 0.690169 0
vt  0.626163 0 0
vt  1 0 0
vt  0.734749 0.93123 0
vt  0.869463 0.910275 0
vt  1 0.765084 0
vt  0 0 0
vt  0.630291 0.227113 0
vt  0.778763 0.465306 0
vt  0.900868 0.553367 0
vt  0.916136 0.663737 0
vt  0 0.629499 0
vt  1 0.629499 0
vt  0.586255 0.596625 0
vt  0 0.393496 0
vt  1 0.393496 0
vt  0.570394 0.376824 0
vt  0.503273 0.793116 0
vt  0.516346 0.975829 0
vt  0.262963 0.809048 0
vt  0.232798 0.682404 0
vt  0.069908 0.481222 0
vt  0 0.432284 0
vt  1 0 0
vt  0.262963 0.809048 0
vt  0.232798 0.682404 0
vt  0.069908 0.481222 0
vt  0 0.432284 0
vt  1 0 0
vt  0.869463 0.910275 0
vt  0.734749 0.93123 0
vt  1 0.765084 0
vt  0 0 0
vt  0.630291 0.227113 0
vt  0.778763 0.465306 0
vt  0.900868 0.553367 0
vt  0.916136 0.663737 0
vt  0.697585 0.944785 0
vt  0.640975 0.95038 0
vt  0.68223 0.950386 0
# 94 texture vertices

vn  -1.46745 -0.325576 0.604118
vn  1.400196 -0.590638 2.775434
vn  -1.658223 -0.204818 -0.19659
vn  -2.511694 0.612371 2.144238
vn  -4.523554 0.396048 4.261207
vn  -0.413097 -0.036684 0.409806
vn  -0.674671 0.820681 0.905414
vn  1.278254 0.714319 1.505775
vn  2.266537 2.051643 2.983552
vn  2.006052 2.07577 3.285833
vn  2.182854 0.987093 1.852329
vn  2.702332 1.043517 3.660691
vn  -0.280303 -0.629151 0.171575
vn  -0.060648 -0.701965 0.175993
vn  0.158841 -0.105336 0.469176
vn  -3.146127 0.823582 0.323522
vn  -1.807035 0.000316 0.262204
vn  -4.681997 0.53242 1.551069
vn  -2.52431 -0.031292 0.476172
vn  -0.993824 0.033317 0.105846
vn  -1 0 0
vn  -1 0 0
vn  -1 0 0
vn  -0.954383 -0.205263 -1.340945
vn  -0.896295 0.052559 -1.259328
vn  -0.168967 -2.165599 -0.237405
vn  -0.511761 -1.714419 0.376671
vn  -0.482199 -1.972273 1.222845
vn  -0.164556 0.033393 0.985802
vn  -0.890238 -0.177541 0.330237
vn  -0.959249 -0.141214 0.244745
vn  -0.98903 -0.14168 0.041795
vn  -0.047939 -0.614419 -0.067356
vn  -0.541463 0.031752 -0.760776
vn  -0.667524 -0.143567 -0.937896
vn  -0.839069 0.295704 -1.178924
vn  -0.570724 -0.10276 -0.801889
vn  -0.718324 0.138246 -1.009273
vn  -0.615632 0.671194 -0.864986
vn  -0.486486 0.171767 -0.62807
vn  -2.473048 1.588164 -0.241655
vn  -3.60756 0 0
vn  -2.603203 0 0
vn  -3.846708 0 0
vn  -2.805378 0.879452 -0.853956
vn  -3.560086 -0.131178 0.003477
vn  -2.413456 -0.270785 0.473898
vn  2.623214 -0.716044 3.431021
vn  2.246447 -0.363037 2.914692
vn  3.043252 -0.468846 3.131655
vn  2.634609 -0.768299 2.574324
vn  2.847671 -1.374678 2.022704
vn  0.378482 -0.250992 1.117943
vn  -0.990229 -0.119309 0.07219
vn  0.871106 -0.274953 1.339677
vn  1.229505 1.200961 0.967532
vn  2.021319 1.077644 1.339955
vn  2.774747 0.745041 1.348128
vn  1.782839 -0.316524 2.280352
vn  2.451565 -0.08493 2.269094
vn  2.636277 -0.092506 1.675022
vn  2.532339 -0.163211 1.44523
vn  -1.744267 0.338476 1.689351
vn  0.060848 -0.021219 0.997921
vn  -1.6176 -0.029556 0.828033
vn  0.135175 -0.125346 0.982861
vn  -0.057698 0.032576 0.997802
vn  -0.172258 -0.012941 -0.984967
vn  -0.109759 0.524984 -0.254075
vn  -1.12604 0.754046 -2.606611
vn  -0.605702 0.133584 -1.402107
vn  -0.104779 0.272698 -0.956377
vn  -0.091138 0.035946 -0.995189
vn  0.549028 -0.006897 -0.835775
vn  0.295977 0.244568 -0.923355
vn  0.289929 0.231921 -0.928522
vn  0.374816 0.308103 -0.874406
vn  0.550042 0.238601 -0.800327
vn  0.981379 -0.157254 -0.1103
vn  0.52711 0.705592 -0.473598
vn  0.575918 0.461678 -0.674664
vn  0.752426 0.232886 -0.616132
vn  0.972074 0.076772 -0.221763
vn  0.926617 0.241295 -0.288372
vn  0.873807 0.077309 -0.480088
vn  0.668638 0.193312 -0.718021
vn  -0.740479 2.490817 -1.053093
vn  0.344305 0.609072 -0.714482
vn  -0.072422 3.304931 -0.247832
# 89 vertex normals

g ST02_01
s 1
f -37/-39/-37 -88/-93/-88 -75/-78/-75
s 2
f -75/-78/-75 -61/-64/-61 -37/-39/-37
s 1
f -73/-76/-73 -74/-77/-74 -70/-73/-70
f -70/-73/-70 -69/-72/-69 -68/-71/-68
f -68/-71/-68 -67/-70/-67 -27/-28/-27
f -70/-73/-70 -68/-71/-68 -27/-28/-27
f -27/-28/-27 -86/-90/-86 -72/-75/-72
f -70/-73/-70 -27/-28/-27 -72/-75/-72
f -73/-76/-73 -70/-73/-70 -72/-75/-72
f -71/-74/-71 -73/-76/-73 -72/-75/-72
f -36/-38/-36 -89/-94/-89 -60/-62/-60
f -36/-38/-36 -60/-62/-60 -59/-61/-59
f -36/-38/-36 -59/-61/-59 -58/-60/-58
f -85/-89/-85 -72/-75/-72 -86/-90/-86
f -85/-89/-85 -71/-74/-71 -72/-75/-72
f -85/-89/-85 -84/-88/-84 -71/-74/-71
s 2
f -73/-76/-73 -71/-74/-71 -84/-88/-84
f -84/-88/-84 -83/-87/-83 -73/-76/-73
s 0
f -75/-78/-75 -76/-79/-76 -61/-64/-61
f -76/-79/-76 -77/-81/-77 -60/-63/-60
f -60/-63/-60 -61/-64/-61 -76/-79/-76
f -77/-80/-77 -62/-65/-62 -59/-61/-59
f -59/-61/-59 -60/-62/-60 -77/-80/-77
f -62/-65/-62 -63/-66/-63 -58/-60/-58
f -58/-60/-58 -59/-61/-59 -62/-65/-62
f -63/-66/-63 -64/-67/-64 -57/-59/-57
f -57/-59/-57 -58/-60/-58 -63/-66/-63
f -64/-67/-64 -65/-68/-65 -56/-58/-56
f -56/-58/-56 -57/-59/-57 -64/-67/-64
f -65/-68/-65 -66/-69/-66 -55/-57/-55
f -55/-57/-55 -56/-58/-56 -65/-68/-65
f -66/-69/-66 -67/-70/-67 -54/-56/-54
f -54/-56/-54 -55/-57/-55 -66/-69/-66
f -67/-70/-67 -68/-71/-68 -53/-55/-53
f -53/-55/-53 -54/-56/-54 -67/-70/-67
f -68/-71/-68 -69/-72/-69 -52/-54/-52
f -52/-54/-52 -53/-55/-53 -68/-71/-68
f -69/-72/-69 -70/-73/-70 -51/-53/-51
f -51/-53/-51 -52/-54/-52 -69/-72/-69
f -70/-73/-70 -74/-77/-74 -50/-52/-50
f -50/-52/-50 -51/-53/-51 -70/-73/-70
s 1
f -84/-88/-84 -85/-89/-85 -86/-91/-86
f -23/-23/-23 -84/-88/-84 -86/-91/-86
f -86/-91/-86 -27/-29/-27 -26/-27/-26
f -23/-23/-23 -86/-91/-86 -26/-27/-26
s 2
f -61/-64/-61 -60/-63/-60 -89/-94/-89
f -89/-94/-89 -37/-39/-37 -61/-64/-61
s 1
f -57/-59/-57 -56/-58/-56 -55/-57/-55
f -55/-57/-55 -54/-56/-54 -53/-55/-53
f -55/-57/-55 -53/-55/-53 -52/-54/-52
f -52/-54/-52 -51/-53/-51 -50/-52/-50
f -52/-54/-52 -50/-52/-50 -49/-51/-49
f -55/-57/-55 -52/-54/-52 -49/-51/-49
f -55/-57/-55 -49/-51/-49 -48/-50/-48
f -48/-50/-48 -47/-49/-47 -46/-48/-46
f -46/-48/-46 -45/-47/-45 -44/-46/-44
f -48/-50/-48 -46/-48/-46 -44/-46/-44
f -55/-57/-55 -48/-50/-48 -44/-46/-44
f -57/-59/-57 -55/-57/-55 -44/-46/-44
f -44/-46/-44 -43/-45/-43 -87/-92/-87
f -57/-59/-57 -44/-46/-44 -87/-92/-87
f -58/-60/-58 -57/-59/-57 -87/-92/-87
f -58/-60/-58 -87/-92/-87 -36/-38/-36
f -82/-86/-82 -81/-85/-81 -34/-37/-34
f -81/-85/-81 -80/-84/-80 -33/-36/-33
f -33/-36/-33 -34/-37/-34 -81/-85/-81
f -80/-84/-80 -79/-83/-79 -32/-35/-32
f -32/-35/-32 -33/-36/-33 -80/-84/-80
f -79/-83/-79 -78/-82/-78 -32/-35/-32
f -75/-78/-75 -88/-93/-88 -35/-34/-35
f -35/-34/-35 -31/-33/-31 -75/-78/-75
f -42/-44/-42 -75/-78/-75 -31/-33/-31
f -41/-43/-41 -42/-44/-42 -31/-33/-31
f -31/-33/-31 -30/-32/-30 -41/-43/-41
f -40/-42/-40 -41/-43/-41 -30/-32/-30
f -30/-32/-30 -29/-31/-29 -40/-42/-40
f -39/-41/-39 -40/-42/-40 -29/-31/-29
f -29/-31/-29 -28/-30/-28 -39/-41/-39
f -78/-82/-78 -38/-40/-38 -28/-30/-28
f -28/-30/-28 -32/-35/-32 -78/-82/-78
f -38/-40/-38 -39/-41/-39 -28/-30/-28
f -67/-70/-67 -66/-69/-66 -25/-25/-25
f -25/-25/-25 -27/-28/-27 -67/-70/-67
f -25/-26/-25 -24/-24/-24 -26/-27/-26
f -26/-27/-26 -27/-29/-27 -25/-26/-25
f -65/-68/-65 -64/-67/-64 -63/-66/-63
f -63/-66/-63 -62/-65/-62 -77/-80/-77
f -65/-68/-65 -63/-66/-63 -77/-80/-77
f -66/-69/-66 -65/-68/-65 -77/-80/-77
f -66/-69/-66 -77/-80/-77 -25/-25/-25
f -25/-26/-25 -77/-81/-77 -76/-79/-76
f -76/-79/-76 -24/-24/-24 -25/-26/-25
f -42/-44/-42 -41/-43/-41 -24/-24/-24
f -75/-78/-75 -42/-44/-42 -24/-24/-24
f -76/-79/-76 -75/-78/-75 -24/-24/-24
f -40/-42/-40 -39/-41/-39 -26/-27/-26
f -41/-43/-41 -40/-42/-40 -26/-27/-26
f -24/-24/-24 -41/-43/-41 -26/-27/-26
f -23/-23/-23 -81/-85/-81 -82/-86/-82
f -23/-23/-23 -82/-86/-82 -83/-87/-83
f -23/-23/-23 -83/-87/-83 -84/-88/-84
f -26/-27/-26 -39/-41/-39 -38/-40/-38
f -38/-40/-38 -78/-82/-78 -79/-83/-79
f -26/-27/-26 -38/-40/-38 -79/-83/-79
f -23/-23/-23 -26/-27/-26 -79/-83/-79
f -79/-83/-79 -80/-84/-80 -81/-85/-81
f -23/-23/-23 -79/-83/-79 -81/-85/-81
f -49/-51/-49 -50/-52/-50 -21/-22/-21
s 2
f -48/-50/-48 -49/-51/-49 -21/-22/-21
f -47/-49/-47 -48/-50/-48 -21/-22/-21
f -21/-22/-21 -20/-21/-20 -47/-49/-47
f -46/-48/-46 -47/-49/-47 -20/-21/-20
f -20/-21/-20 -19/-20/-19 -46/-48/-46
s 1
f -45/-47/-45 -46/-48/-46 -19/-20/-19
s 4
f -44/-46/-44 -45/-47/-45 -19/-20/-19
f -19/-20/-19 -18/-19/-18 -44/-46/-44
f -43/-45/-43 -44/-46/-44 -18/-19/-18
f -18/-19/-18 -17/-18/-17 -43/-45/-43
f -87/-92/-87 -43/-45/-43 -17/-18/-17
f -17/-18/-17 -22/-17/-22 -87/-92/-87
f -20/-21/-20 -21/-22/-21 -2/-2/-2
f -2/-2/-2 -15/-16/-15 -20/-21/-20
f -19/-20/-19 -20/-21/-20 -15/-16/-15
f -15/-16/-15 -14/-15/-14 -19/-20/-19
f -18/-19/-18 -19/-20/-19 -14/-15/-14
f -14/-15/-14 -13/-14/-13 -18/-19/-18
f -17/-18/-17 -18/-19/-18 -13/-14/-13
f -13/-14/-13 -12/-13/-12 -17/-18/-17
f -22/-17/-22 -17/-18/-17 -12/-13/-12
f -12/-13/-12 -16/-12/-16 -22/-17/-22
f -34/-37/-34 -33/-36/-33 -9/-11/-9
f -9/-11/-9 -10/-10/-10 -34/-37/-34
f -33/-36/-33 -32/-35/-32 -8/-9/-8
f -8/-9/-8 -9/-11/-9 -33/-36/-33
f -31/-33/-31 -35/-34/-35 -11/-8/-11
f -11/-8/-11 -7/-7/-7 -31/-33/-31
f -30/-32/-30 -31/-33/-31 -7/-7/-7
f -7/-7/-7 -6/-6/-6 -30/-32/-30
f -29/-31/-29 -30/-32/-30 -6/-6/-6
f -6/-6/-6 -5/-5/-5 -29/-31/-29
f -28/-30/-28 -29/-31/-29 -5/-5/-5
f -5/-5/-5 -4/-4/-4 -28/-30/-28
f -32/-35/-32 -28/-30/-28 -4/-4/-4
f -4/-4/-4 -8/-9/-8 -32/-35/-32
f -9/-11/-9 -15/-16/-15 -2/-2/-2
f -2/-2/-2 -10/-10/-10 -9/-11/-9
f -9/-11/-9 -8/-9/-8 -15/-16/-15
f -8/-9/-8 -4/-4/-4 -14/-15/-14
f -14/-15/-14 -15/-16/-15 -8/-9/-8
f -14/-15/-14 -4/-4/-4 -5/-5/-5
f -5/-5/-5 -13/-14/-13 -14/-15/-14
f -13/-14/-13 -5/-5/-5 -6/-6/-6
f -6/-6/-6 -12/-13/-12 -13/-14/-13
f -12/-13/-12 -6/-6/-6 -7/-7/-7
f -7/-7/-7 -11/-8/-11 -16/-12/-16
f -16/-12/-16 -12/-13/-12 -7/-7/-7
s 1
f -73/-76/-73 -50/-52/-50 -74/-77/-74
f -50/-52/-50 -3/-3/-3 -21/-22/-21
f -50/-52/-50 -1/-1/-1 -3/-3/-3
f -50/-52/-50 -73/-76/-73 -1/-1/-1
f -82/-86/-82 -34/-37/-34 -83/-87/-83
f -83/-87/-83 -34/-37/-34 -1/-1/-1
s 4
f -10/-10/-10 -3/-3/-3 -1/-1/-1
f -1/-1/-1 -34/-37/-34 -10/-10/-10
f -3/-3/-3 -2/-2/-2 -21/-22/-21
f -3/-3/-3 -10/-10/-10 -2/-2/-2
s 1
f -73/-76/-73 -83/-87/-83 -1/-1/-1
# 167 faces

g
