# Max2Obj Version 4.0 Mar 10th, 2001
#
# object Line02 to come ...
#
v  -133.210327 -39.224358 25.26367
v  -82.389557 -73.910713 37.393097
v  -9.879295 -79.076759 33.797337
v  -16.698036 -11.180077 22.207384
v  -18.819191 136.433685 8.533674
v  -31.178711 130.529633 12.260131
v  -46.676865 103.223366 8.533673
v  -64.389038 81.821152 8.533672
v  -76.197159 86.249191 6.488617
v  -95.385361 64.108971 0.000003
v  -115.498154 39.754726 0.000002
v  -125.092255 41.96875 6.488616
v  -136.900375 29.422623 0.000001
v  -161.254608 -3.061996 0
v  -133.210327 -54.680305 -2.046952
v  -77.859772 -89.366676 -2.046956
v  -22.509224 -94.532722 -2.046954
v  -26.156235 -11.180077 -22.011896
v  -28.836761 114.920837 -22.011887
v  -41.196281 109.016777 -22.011889
v  -46.676865 103.223358 -22.01189
v  -64.389038 81.821152 -22.011892
v  -76.197159 86.249191 -22.011892
v  -95.385361 58.0396 -22.011892
v  -115.498154 39.754726 -22.011894
v  -125.092255 41.96875 -22.011894
v  -136.900375 29.422623 -22.011894
v  -161.254608 -3.061996 -22.011896
v  -141.580627 -70.017982 -47.258694
v  -90.203903 -102.214073 -34.062984
v  -38.827171 -70.799309 -40.551598
v  -35.235359 -7.777168 -47.25869
v  -35.402061 129.238861 -47.258686
v  -46.874252 123.758675 -47.25869
v  -61.25972 98.412827 -47.258686
v  -77.700272 78.547157 -47.25869
v  -88.660645 68.642075 -47.258694
v  -106.471252 50.513206 -47.258686
v  -125.140091 39.500839 -47.258694
v  -134.045395 32.677834 -47.258694
v  -145.005753 21.03244 -47.25869
v  -167.611511 -0.241913 -47.258698
v  -161.787415 -86.95565 -66.254333
v  -97.983932 -126.939186 -66.254333
v  -27.279289 -96.684242 -59.54723
v  -25.309723 -18.41861 -66.254326
v  -29.926895 151.73819 -66.254326
v  -44.17392 144.932465 -66.254333
v  -62.038879 113.456085 -66.254326
v  -82.455994 97.957375 -66.254326
v  -96.067398 93.889694 -66.254333
v  -118.185944 68.368294 -66.254326
v  -130.523331 40.294765 -66.254333
v  -152.429596 42.846909 -66.254333
v  -166.040985 28.384781 -66.254326
v  -194.114502 -9.06076 -66.254333
v  -153.572617 -84.269463 -82.37561
v  -89.769135 -124.252983 -82.37561
v  -25.965652 -96.684242 -82.37561
v  -23.996086 -18.41861 -82.375603
v  -21.712097 173.963196 -82.375595
v  -35.959122 167.157486 -82.375603
v  -53.824081 135.681122 -82.375603
v  -74.241196 120.182404 -82.375603
v  -87.8526 118.78714 -82.37561
v  -109.971146 90.593323 -82.375603
v  -133.155518 40.294765 -82.37561
v  -144.214798 42.846909 -82.37561
v  -166.181839 28.384781 -82.375603
v  -185.899719 -9.06076 -82.37561
v  -158.793976 -66.12191 -132.004303
v  -79.558014 -114.273354 -166.859207
v  12.770439 -121.444847 -145.93515
v  0.14962 -17.624367 -124.14119
v  4.960312 208.41098 -114.77639
v  -26.904465 190.101883 -110.164612
v  -44.431854 184.982361 -112.278679
v  -73.144882 148.573257 -103.059982
v  -90.048538 136.570404 -105.299423
v  -104.646393 104.876015 -105.299416
v  -133.438492 47.787163 -103.669846
v  -147.172729 50.956604 -105.299423
v  -164.076385 32.996452 -105.299416
v  -198.940186 -13.506226 -105.299423
v  -45.126282 -76.965843 33.797337
v  -96.117279 -62.469337 25.263668
v  -67.595459 -74.868721 25.263666
v  -32.011642 -78.189873 40.28595
v  -122.645401 -45.845039 28.507975
v  -135.141586 -3.296654 9.96441
v  -126.126938 -6.550667 16.547564
v  -116.805298 -10.007805 10.155091
v  -95.794113 -13.482262 15.484422
v  -81.663025 -19.112572 27.644999
v  -66.202591 -23.247635 19.240246
v  -45.743118 -26.220024 24.316969
v  -31.707863 -23.002052 31.031752
v  -126.061172 2.948166 16.334517
v  -116.528366 4.581223 9.424599
v  -95.677261 13.628086 9.43259
v  -78.598007 24.119884 21.487593
v  -65.477707 28.620762 12.664427
v  -46.116638 38.121315 15.710623
v  -31.512444 46.902332 22.468294
v  -20.914368 50.739853 8.53367
v  -31.437042 65.796371 17.141825
v  -46.401047 71.172714 9.749255
v  -38.426254 -117.073143 -175.693512
v  -10.695435 -119.321007 -152.786057
v  -98.645294 -102.67408 -155.515717
v  -115.292633 -92.557549 -152.968277
v  -137.635422 -78.979897 -133.612488
v  -164.925201 -8.827171 -118.93573
v  -102.484161 -7.086868 -123.895432
v  -76.675323 -6.114342 -124.43589
v  -46.949005 -13.114464 -141.037262
v  -25.027267 -12.949158 -136.839401
v  -4.255371 79.30835 -113.765244
v  -36.316849 80.825951 -115.200401
v  -55.360107 81.524353 -109.583038
v  -74.321609 82.197281 -110.184761
v  -91.303421 82.66687 -105.675926
v  -121.666153 26.72649 -103.312836
v  -92.741837 46.35511 -107.644974
v  -60.746246 44.02631 -107.833618
v  -27.999939 40.888252 -117.952843
v  -3.998962 38.950226 -118.085281
v  -135.314987 -8.891403 -117.057457
v  -178.856049 -39.828522 -118.659203
v  -115.444336 -65.813667 -2.046953
v  -111.674835 -88.758949 -39.577625
v  -93.138748 -79.791847 -2.046955
v  -67.161072 -114.484306 -82.37561
v  -102.231918 -116.44297 -82.37561
v  -59.741959 -10.101898 -126.087318
v  -58.944412 -115.676506 -158.06308
v  -15.295143 -103.504967 -99.884148
v  -18.370583 -18.233566 -92.106209
v  -17.511322 89.982933 -82.375603
v  -14.49781 183.280563 -91.13929
v  -36.862907 -81.741386 -53.577507
v  -34.216454 -11.362144 -58.654171
v  -38.819092 -77.870354 -25.591864
v  -34.377869 -9.917725 -27.889702
v  -35.533554 35.806797 -30.035173
v  -48.456741 36.973015 18.425894
v  -51.258423 -25.418747 26.031879
v  -54.007965 -76.136879 33.507576
v  -64.137299 -90.647438 -2.046955
v  -81.353836 -93.003197 -11.109265
v  -76.411621 65.589401 9.600475
v  -81.658768 19.891697 13.261864
v  -86.047913 -16.422859 18.889563
v  -88.802612 -67.0532 27.863264
# 154 vertices

vn  -0.79022 -0.612824 0
vn  -0.867464 -0.399831 0.296044
vn  -0.059647 -0.995947 -0.067322
vn  0.937728 0.035183 -0.345584
vn  0.992342 -0.024262 -0.121111
vn  -0.489946 0.780234 -0.388829
vn  -0.864528 0.498932 -0.060487
vn  -0.770394 0.637568 0
vn  0.351123 0.936329 0
vn  -0.755689 0.654931 0
vn  0.22486 0.974391 0
vn  0.22486 0.974391 0
vn  -0.7282 0.685365 0
vn  -0.79022 -0.612824 0
vn  -0.890055 -0.396728 0.224521
vn  -0.512517 -0.817846 0.261638
vn  -0.054486 -0.909782 0.411494
vn  0.992342 -0.024262 -0.121111
vn  0.945735 0.020104 -0.324317
vn  -0.394476 0.825794 -0.403055
vn  -0.726448 0.687221 0
vn  -0.770394 0.637568 0
vn  0.351123 0.936329 0
vn  -0.817082 0.555781 -0.153246
vn  0.22486 0.974391 0
vn  0.22486 0.974391 0
vn  -0.7282 0.685365 0
vn  -0.79022 -0.612824 0
vn  -0.899359 -0.335518 0.280325
vn  -0.085205 -0.912904 0.399182
vn  0.446321 -0.808954 -0.382611
vn  0.996059 0.001212 0.08868
vn  -0.365714 0.765582 0.52928
vn  -0.365713 0.765582 0.529281
vn  -0.805161 0.456983 0.377997
vn  -0.732992 0.606614 0.307801
vn  -0.659132 0.729356 -0.183262
vn  -0.709491 0.697036 0.103743
vn  0.223837 0.969962 -0.095239
vn  -0.606416 0.791486 -0.07622
vn  -0.728187 0.685352 0.006021
vn  -0.8919 -0.415669 0.178141
vn  -0.556584 -0.230988 0.798034
vn  0.507515 -0.738228 0.444352
vn  0.056065 -0.339194 0.939044
vn  0.996332 0.027035 0.081186
vn  0.964834 -0.013142 0.262531
vn  -0.313359 0.655982 0.686655
vn  -0.799945 0.454022 0.392367
vn  -0.435027 0.57308 0.6945
vn  -0.167604 0.560841 0.810781
vn  -0.513001 0.444601 0.734276
vn  -0.595732 0.777542 0.201324
vn  0.106702 0.915871 0.387033
vn  -0.496807 0.467582 0.731129
vn  -0.527113 -0.196646 0.82673
vn  -0.810433 -0.34835 -0.47101
vn  0.396167 -0.916865 0.049099
vn  0.998145 -0.020196 0.057437
vn  0.996332 0.027035 0.081186
vn  0.864776 0.043257 0.500292
vn  -0.301106 0.630332 0.715553
vn  -0.846181 0.480265 0.230918
vn  -0.474448 0.625011 0.619888
vn  -0.056975 0.555811 0.829354
vn  -0.717471 0.562869 0.410383
vn  0.115699 0.993105 -0.018891
vn  0.223398 0.968057 0.113835
vn  -0.549879 0.835231 0.004804
vn  -0.835691 -0.346819 -0.425836
vn  -0.817678 -0.563058 -0.119865
vn  0.395921 -0.916297 -0.060385
vn  0.291869 0.23035 -0.928306
vn  0.291869 0.23035 -0.928306
vn  -0.144688 0.002579 -0.989474
vn  -0.368841 0.772185 0.517384
vn  -0.253782 0.536508 0.804832
vn  -0.45171 0.536681 0.712693
vn  -0.530531 0.644398 0.550716
vn  -0.907171 0.417827 0.049609
vn  0.2129 0.922569 0.321777
vn  0.179178 0.934531 0.307487
vn  -0.726372 0.683644 0.070817
vn  -0.757792 0.568129 0.320905
vn  -0.059647 -0.995947 -0.067322
vn  0.234923 0.188797 0.953502
vn  0.63516 0.072588 0.768962
vn  -0.059647 -0.995947 -0.067322
vn  -0.117376 0.279644 0.952902
vn  -0.64799 0.189805 0.73762
vn  -0.117376 0.279644 0.952902
vn  0.611365 0.279513 0.740341
vn  0.234923 0.188797 0.953502
vn  -0.781863 0.119226 0.611944
vn  0.63516 0.072588 0.768962
vn  -0.014945 0.183447 0.982916
vn  -0.454437 0.149746 0.878102
vn  0.554512 0.190627 0.810048
vn  -0.113282 0.260244 0.958874
vn  -0.113282 0.260244 0.958874
vn  -0.949281 0.131869 0.28544
vn  0.492891 0.215641 0.842946
vn  0.72369 0.128525 0.678052
vn  0.760285 0.173445 0.626006
vn  0.760285 0.173445 0.626006
vn  0.760285 0.173445 0.626006
vn  0.72369 0.128525 0.678052
vn  0.633793 0.197508 -0.747862
vn  0.633793 0.197508 -0.747862
vn  -0.530838 -0.827732 -0.181855
vn  -0.530838 -0.827732 -0.181855
vn  -0.485424 0.34587 -0.802955
vn  -0.386507 0.165589 -0.9073
vn  -0.031665 0.312759 -0.949305
vn  -0.004774 0.365253 -0.930896
vn  0.175554 0.324267 -0.929533
vn  0.633793 0.197508 -0.747862
vn  -0.144688 0.002579 -0.989474
vn  0.10919 0.036372 -0.993355
vn  -0.315563 0.00861 -0.948865
vn  0.056571 0.105564 -0.992802
vn  -0.01597 0.007355 -0.999845
vn  0.385192 0.200041 -0.900894
vn  -0.031145 0.295976 -0.954688
vn  -0.224361 0.448546 -0.865141
vn  0.021606 0.332014 -0.943027
vn  0.465457 0.127878 -0.875784
vn  -0.210543 0.23132 -0.949822
vn  -0.817678 -0.563058 -0.119865
vn  -0.488069 -0.778832 0.393966
vn  -0.531397 -0.604912 0.593042
vn  -0.867464 -0.399831 0.296044
vn  0.396167 -0.916865 0.049099
vn  -0.491015 -0.783535 -0.380759
vn  -0.004774 0.365253 -0.930896
vn  -0.071295 -0.997423 0.007971
vn  0.850792 -0.017222 0.525221
vn  0.865001 -0.051746 0.499095
vn  0.706724 -0.042277 0.706225
vn  -0.368877 0.772204 0.51733
vn  0.056065 -0.339194 0.939044
vn  0.996059 0.001212 0.08868
vn  0.446321 -0.808954 -0.382611
vn  0.579016 -0.023605 -0.814974
vn  0.579016 -0.023605 -0.814974
vn  0.72369 0.128525 0.678052
vn  0.310824 0.122085 0.942594
vn  -0.014945 0.183447 0.982916
vn  -0.085205 -0.912904 0.399182
vn  -0.085205 -0.912904 0.399182
vn  -0.949281 0.131869 0.28544
vn  -0.949281 0.131869 0.28544
vn  -0.869564 0.131667 0.475943
vn  -0.867464 -0.399831 0.296044
# 154 vertex normals

g Line02
s 0
f -50//-50 -49//-49 -51//-51
f -150//-150 -50//-50 -137//-137
f -137//-137 -136//-136 -150//-150
f -149//-149 -150//-150 -136//-136
f -136//-136 -135//-135 -149//-149
f -148//-148 -149//-149 -135//-135
f -135//-135 -134//-134 -148//-148
f -147//-147 -148//-148 -134//-134
f -134//-134 -133//-133 -147//-147
f -152//-152 -67//-67 -70//-70
f -70//-70 -138//-138 -152//-152
f -151//-151 -152//-152 -138//-138
f -138//-138 -137//-137 -151//-151
f -153//-153 -1//-1 -23//-23
f -23//-23 -139//-139 -153//-153
f -154//-154 -141//-141 -127//-127
f -127//-127 -140//-140 -154//-154
f -146//-146 -147//-147 -133//-133
f -133//-133 -132//-132 -146//-146
f -145//-145 -146//-146 -132//-132
f -132//-132 -131//-131 -145//-145
f -143//-143 -144//-144 -130//-130
f -130//-130 -129//-129 -143//-143
f -142//-142 -143//-143 -129//-129
f -129//-129 -128//-128 -142//-142
f -141//-141 -142//-142 -128//-128
f -128//-128 -127//-127 -141//-141
f -144//-144 -145//-145 -131//-131
f -131//-131 -130//-130 -144//-144
f -137//-137 -11//-11 -10//-10
f -10//-10 -136//-136 -137//-137
f -135//-135 -136//-136 -122//-122
f -122//-122 -121//-121 -135//-135
f -134//-134 -135//-135 -121//-121
f -121//-121 -120//-120 -134//-134
f -133//-133 -134//-134 -120//-120
f -120//-120 -119//-119 -133//-133
f -6//-6 -5//-5 -125//-125
f -138//-138 -6//-6 -125//-125
f -125//-125 -124//-124 -12//-12
f -138//-138 -125//-125 -12//-12
f -137//-137 -138//-138 -12//-12
f -12//-12 -11//-11 -137//-137
f -23//-23 -125//-125 -5//-5
f -140//-140 -127//-127 -113//-113
f -113//-113 -126//-126 -140//-140
f -132//-132 -133//-133 -119//-119
f -119//-119 -118//-118 -132//-132
f -131//-131 -132//-132 -118//-118
f -118//-118 -117//-117 -131//-131
f -129//-129 -130//-130 -116//-116
f -116//-116 -115//-115 -129//-129
f -128//-128 -129//-129 -115//-115
f -115//-115 -114//-114 -128//-128
f -127//-127 -128//-128 -114//-114
f -114//-114 -113//-113 -127//-127
f -130//-130 -131//-131 -117//-117
f -117//-117 -116//-116 -130//-130
f -122//-122 -123//-123 -13//-13
f -13//-13 -108//-108 -122//-122
f -121//-121 -122//-122 -108//-108
f -108//-108 -107//-107 -121//-121
f -120//-120 -121//-121 -107//-107
f -107//-107 -106//-106 -120//-120
f -119//-119 -120//-120 -106//-106
f -106//-106 -105//-105 -119//-119
f -124//-124 -125//-125 -111//-111
f -111//-111 -110//-110 -14//-14
f -124//-124 -111//-111 -14//-14
f -124//-124 -14//-14 -13//-13
f -13//-13 -123//-123 -124//-124
f -125//-125 -24//-24 -111//-111
f -126//-126 -113//-113 -99//-99
f -99//-99 -112//-112 -126//-126
f -118//-118 -119//-119 -105//-105
f -105//-105 -104//-104 -118//-118
f -117//-117 -118//-118 -104//-104
f -104//-104 -103//-103 -117//-117
f -115//-115 -116//-116 -102//-102
f -102//-102 -101//-101 -115//-115
f -114//-114 -115//-115 -101//-101
f -101//-101 -100//-100 -114//-114
f -113//-113 -114//-114 -100//-100
f -100//-100 -99//-99 -113//-113
f -116//-116 -117//-117 -103//-103
f -103//-103 -102//-102 -116//-116
f -108//-108 -109//-109 -95//-95
f -108//-108 -95//-95 -16//-16
f -108//-108 -16//-16 -94//-94
f -107//-107 -108//-108 -94//-94
f -94//-94 -93//-93 -107//-107
f -106//-106 -107//-107 -93//-93
f -93//-93 -92//-92 -106//-106
f -105//-105 -106//-106 -92//-92
f -92//-92 -91//-91 -105//-105
f -111//-111 -97//-97 -22//-22
f -109//-109 -110//-110 -96//-96
f -96//-96 -95//-95 -109//-109
f -111//-111 -21//-21 -97//-97
f -112//-112 -99//-99 -85//-85
f -85//-85 -98//-98 -112//-112
f -104//-104 -105//-105 -91//-91
f -91//-91 -90//-90 -104//-104
f -103//-103 -104//-104 -90//-90
f -90//-90 -89//-89 -103//-103
f -101//-101 -102//-102 -88//-88
f -88//-88 -87//-87 -101//-101
f -100//-100 -101//-101 -87//-87
f -87//-87 -86//-86 -100//-100
f -99//-99 -100//-100 -86//-86
f -86//-86 -85//-85 -99//-99
f -102//-102 -103//-103 -89//-89
f -89//-89 -88//-88 -102//-102
f -16//-16 -95//-95 -17//-17
f -93//-93 -94//-94 -15//-15
f -15//-15 -79//-79 -93//-93
f -92//-92 -93//-93 -79//-79
f -79//-79 -78//-78 -92//-92
f -91//-91 -92//-92 -78//-78
f -78//-78 -77//-77 -91//-91
f -22//-22 -97//-97 -83//-83
f -83//-83 -19//-19 -22//-22
f -96//-96 -18//-18 -17//-17
f -17//-17 -95//-95 -96//-96
f -21//-21 -44//-44 -45//-45
f -98//-98 -26//-26 -84//-84
f -90//-90 -91//-91 -77//-77
f -77//-77 -76//-76 -90//-90
f -89//-89 -90//-90 -76//-76
f -76//-76 -75//-75 -89//-89
f -87//-87 -88//-88 -74//-74
f -74//-74 -73//-73 -87//-87
f -86//-86 -87//-87 -73//-73
f -73//-73 -72//-72 -86//-86
f -85//-85 -86//-86 -72//-72
f -72//-72 -71//-71 -85//-85
f -88//-88 -89//-89 -75//-75
f -75//-75 -74//-74 -88//-88
f -26//-26 -71//-71 -42//-42
f -9//-9 -52//-52 -48//-48
f -144//-144 -56//-56 -55//-55
f -55//-55 -145//-145 -144//-144
f -143//-143 -57//-57 -56//-56
f -56//-56 -144//-144 -143//-143
f -3//-3 -54//-54 -4//-4
f -4//-4 -54//-54 -53//-53
f -53//-53 -147//-147 -4//-4
f -48//-48 -52//-52 -51//-51
f -51//-51 -49//-49 -48//-48
f -142//-142 -65//-65 -57//-57
f -57//-57 -143//-143 -142//-142
f -142//-142 -141//-141 -65//-65
f -141//-141 -154//-154 -65//-65
f -154//-154 -66//-66 -64//-64
f -64//-64 -65//-65 -154//-154
f -64//-64 -66//-66 -63//-63
f -66//-66 -69//-69 -62//-62
f -62//-62 -63//-63 -66//-66
f -1//-1 -153//-153 -61//-61
f -61//-61 -2//-2 -1//-1
f -153//-153 -68//-68 -60//-60
f -60//-60 -61//-61 -153//-153
f -7//-7 -70//-70 -59//-59
f -59//-59 -8//-8 -7//-7
f -59//-59 -70//-70 -67//-67
f -67//-67 -58//-58 -59//-59
f -67//-67 -152//-152 -151//-151
f -151//-151 -58//-58 -67//-67
f -65//-65 -64//-64 -57//-57
f -64//-64 -63//-63 -56//-56
f -56//-56 -57//-57 -64//-64
f -56//-56 -63//-63 -62//-62
f -62//-62 -55//-55 -56//-56
f -61//-61 -54//-54 -3//-3
f -3//-3 -2//-2 -61//-61
f -54//-54 -61//-61 -60//-60
f -60//-60 -53//-53 -54//-54
f -59//-59 -52//-52 -9//-9
f -9//-9 -8//-8 -59//-59
f -52//-52 -59//-59 -58//-58
f -58//-58 -51//-51 -52//-52
f -58//-58 -151//-151 -50//-50
f -50//-50 -51//-51 -58//-58
f -50//-50 -151//-151 -137//-137
f -50//-50 -150//-150 -149//-149
f -149//-149 -49//-49 -50//-50
f -49//-49 -149//-149 -148//-148
f -148//-148 -48//-48 -49//-49
f -48//-48 -148//-148 -147//-147
f -83//-83 -40//-40 -20//-20
f -20//-20 -19//-19 -83//-83
f -38//-38 -46//-46 -47//-47
f -47//-47 -39//-39 -38//-38
f -81//-81 -82//-82 -46//-46
f -46//-46 -38//-38 -81//-81
f -40//-40 -83//-83 -45//-45
f -45//-45 -41//-41 -40//-40
f -45//-45 -44//-44 -41//-41
f -41//-41 -44//-44 -43//-43
f -43//-43 -27//-27 -41//-41
f -43//-43 -84//-84 -27//-27
f -71//-71 -72//-72 -73//-73
f -73//-73 -42//-42 -71//-71
f -42//-42 -73//-73 -74//-74
f -74//-74 -27//-27 -42//-42
f -27//-27 -74//-74 -32//-32
f -75//-75 -76//-76 -33//-33
f -76//-76 -77//-77 -34//-34
f -34//-34 -33//-33 -76//-76
f -77//-77 -78//-78 -35//-35
f -35//-35 -34//-34 -77//-77
f -78//-78 -79//-79 -36//-36
f -36//-36 -35//-35 -78//-78
f -79//-79 -80//-80 -37//-37
f -37//-37 -36//-36 -79//-79
f -28//-28 -81//-81 -38//-38
f -38//-38 -29//-29 -28//-28
f -29//-29 -38//-38 -39//-39
f -39//-39 -30//-30 -29//-29
f -20//-20 -40//-40 -30//-30
f -40//-40 -41//-41 -31//-31
f -31//-31 -30//-30 -40//-40
f -31//-31 -41//-41 -32//-32
f -74//-74 -75//-75 -32//-32
f -32//-32 -75//-75 -33//-33
f -33//-33 -31//-31 -32//-32
f -31//-31 -33//-33 -34//-34
f -34//-34 -30//-30 -31//-31
f -30//-30 -34//-34 -35//-35
f -30//-30 -35//-35 -36//-36
f -36//-36 -29//-29 -30//-30
f -29//-29 -36//-36 -37//-37
f -37//-37 -28//-28 -29//-29
f -32//-32 -41//-41 -27//-27
f -84//-84 -42//-42 -27//-27
f -42//-42 -84//-84 -26//-26
f -66//-66 -154//-154 -140//-140
f -140//-140 -25//-25 -66//-66
f -25//-25 -140//-140 -126//-126
f -126//-126 -24//-24 -25//-25
f -24//-24 -126//-126 -112//-112
f -112//-112 -111//-111 -24//-24
f -69//-69 -66//-66 -25//-25
f -25//-25 -23//-23 -69//-69
f -23//-23 -25//-25 -24//-24
f -24//-24 -125//-125 -23//-23
f -68//-68 -153//-153 -139//-139
f -70//-70 -7//-7 -6//-6
f -6//-6 -138//-138 -70//-70
f -18//-18 -96//-96 -46//-46
f -46//-46 -82//-82 -18//-18
f -46//-46 -96//-96 -22//-22
f -22//-22 -47//-47 -46//-46
f -22//-22 -96//-96 -110//-110
f -110//-110 -111//-111 -22//-22
f -111//-111 -112//-112 -98//-98
f -98//-98 -21//-21 -111//-111
f -98//-98 -84//-84 -43//-43
f -45//-45 -83//-83 -97//-97
f -97//-97 -21//-21 -45//-45
f -43//-43 -44//-44 -21//-21
f -21//-21 -98//-98 -43//-43
f -98//-98 -85//-85 -71//-71
f -71//-71 -26//-26 -98//-98
f -30//-30 -39//-39 -20//-20
f -39//-39 -47//-47 -19//-19
f -19//-19 -20//-20 -39//-39
f -19//-19 -47//-47 -22//-22
f -18//-18 -82//-82 -81//-81
f -81//-81 -17//-17 -18//-18
f -15//-15 -94//-94 -16//-16
f -16//-16 -17//-17 -81//-81
f -16//-16 -81//-81 -28//-28
f -16//-16 -28//-28 -37//-37
f -16//-16 -37//-37 -80//-80
f -16//-16 -80//-80 -15//-15
f -15//-15 -80//-80 -79//-79
f -14//-14 -110//-110 -109//-109
f -109//-109 -13//-13 -14//-14
f -13//-13 -109//-109 -108//-108
f -124//-124 -123//-123 -11//-11
f -11//-11 -12//-12 -124//-124
f -122//-122 -136//-136 -10//-10
f -11//-11 -123//-123 -122//-122
f -122//-122 -10//-10 -11//-11
f -48//-48 -147//-147 -53//-53
f -53//-53 -9//-9 -48//-48
f -53//-53 -60//-60 -8//-8
f -8//-8 -9//-9 -53//-53
f -8//-8 -60//-60 -68//-68
f -68//-68 -7//-7 -8//-8
f -68//-68 -139//-139 -6//-6
f -6//-6 -7//-7 -68//-68
f -6//-6 -139//-139 -5//-5
f -5//-5 -139//-139 -23//-23
f -147//-147 -146//-146 -4//-4
f -145//-145 -55//-55 -3//-3
f -146//-146 -145//-145 -3//-3
f -4//-4 -146//-146 -3//-3
f -55//-55 -62//-62 -2//-2
f -2//-2 -3//-3 -55//-55
f -2//-2 -62//-62 -69//-69
f -69//-69 -1//-1 -2//-2
f -1//-1 -69//-69 -23//-23
# 304 faces

g
