ply
format ascii 1.0
element vertex 752
property float32 x
property float32 y
property float32 z
element face 1396
property list uint8 int32 vertex_indices
end_header
5037.000000 -371.000000 2195.000000
5052.370117 -310.975342 2159.902344
5082.000000 -380.000000 2249.000000
5094.000000 -317.000000 2213.000000
5099.000000 -243.000000 2182.000000
5137.000000 -323.000000 2271.000000
5146.000000 -255.000000 2238.000000
5106.428223 -165.852936 2157.891357
4986.000000 -451.000000 2281.000000
5017.000000 -421.000000 2236.000000
5025.000000 -451.000000 2337.000000
5059.000000 -425.000000 2291.000000
5098.000000 -422.000000 2351.000000
5122.000000 -380.000000 2309.000000
5106.000000 -78.000000 2135.000000
5154.076660 -181.059402 2207.746094
5159.812012 -104.891014 2182.395264
5161.282715 -22.859858 2157.707764
5205.247070 -117.797470 2232.674805
5104.893555 1.355985 2113.791260
5191.000000 -262.000000 2295.000000
5199.000000 -191.000000 2262.000000
5244.000000 -201.000000 2310.000000
5163.134277 44.352627 2124.210938
5202.000000 50.000000 2090.000000
5211.790527 25.496244 2171.429443
5249.000000 50.000000 2124.000000
5273.000000 50.000000 2075.000000
5273.000000 50.000000 2161.000000
5322.000000 50.000000 2115.000000
5369.000000 50.000000 2067.000000
5347.000000 50.000000 2166.000000
5401.000000 50.000000 2129.000000
5210.169434 -37.852524 2200.370605
5254.333008 -45.401154 2240.872559
5264.554199 18.859955 2211.823975
5304.059570 30.537201 2230.889160
5325.000000 50.000000 2208.000000
5367.165527 47.014347 2245.013184
5399.000000 50.000000 2191.000000
5250.183594 -131.968781 2276.068359
5290.103516 -132.444931 2316.773193
5295.044922 -52.579937 2276.653320
5332.062012 -47.772541 2313.647705
5347.035156 27.630747 2273.945801
5378.000000 11.000000 2315.000000
5181.000000 -326.000000 2331.000000
5237.000000 -268.000000 2347.000000
5395.016602 41.678383 2290.054932
5447.000000 50.000000 2081.000000
5442.000000 50.000000 2162.000000
5401.000000 50.000000 2041.000000
5492.000000 50.000000 2115.000000
5525.000000 50.000000 2090.000000
5512.000000 50.000000 2158.000000
5488.000000 50.000000 2038.000000
5559.000000 50.000000 2117.000000
5602.000000 50.000000 2073.000000
5595.000000 50.000000 2155.000000
5547.000000 50.000000 2035.000000
5635.000000 50.000000 2126.000000
5649.000000 50.000000 2042.000000
5442.000000 50.000000 2250.000000
5491.000000 50.000000 2203.000000
5531.000000 50.000000 2249.000000
5570.000000 50.000000 2198.000000
5598.000000 50.000000 2230.000000
5652.000000 50.000000 2194.000000
5439.048340 47.180252 2312.008301
5472.000000 50.000000 2288.000000
5515.000000 50.000000 2312.000000
5548.000000 50.000000 2287.000000
5592.000000 50.000000 2316.000000
5638.000000 50.000000 2268.000000
5685.000000 50.000000 2083.000000
5680.000000 50.000000 2160.000000
5710.000000 50.000000 2125.000000
5759.000000 50.000000 2076.000000
5751.000000 50.000000 2159.000000
5731.000000 50.000000 2035.000000
5802.000000 50.000000 2129.000000
5848.000000 50.000000 2074.000000
5851.000000 50.000000 2172.000000
5888.000000 50.000000 2126.000000
5676.000000 50.000000 2231.000000
5731.000000 50.000000 2194.000000
5766.000000 50.000000 2236.000000
5810.000000 50.000000 2206.000000
5829.000000 50.000000 2236.000000
5882.000000 50.000000 2207.000000
5687.000000 50.000000 2331.000000
5730.000000 50.000000 2279.000000
5766.000000 50.000000 2330.000000
5790.000000 50.000000 2282.000000
5836.000000 50.000000 2328.000000
5877.000000 50.000000 2289.000000
5932.000000 50.000000 2169.000000
5924.000000 50.000000 2243.000000
5948.000000 50.000000 2204.000000
5923.000000 50.000000 2325.000000
5961.000000 50.000000 2268.000000
6010.000000 50.000000 2242.000000
6002.000000 50.000000 2332.000000
6034.000000 50.000000 2279.000000
6088.000000 50.000000 2251.000000
6072.000000 50.000000 2327.000000
6030.000000 50.000000 2192.000000
6121.000000 50.000000 2290.000000
4777.000000 -364.000000 2492.000000
4841.000000 -414.000000 2435.000000
4806.000000 -343.000000 2543.000000
4872.000000 -400.000000 2487.000000
4736.435059 -277.626801 2607.714844
4836.000000 -322.000000 2595.000000
4897.000000 -447.000000 2380.000000
4947.000000 -461.000000 2329.000000
4931.000000 -437.000000 2434.000000
4982.000000 -455.000000 2384.000000
5019.000000 -444.000000 2441.000000
5063.000000 -443.000000 2395.000000
5101.000000 -433.000000 2455.000000
4905.000000 -383.000000 2541.000000
4965.000000 -423.000000 2489.000000
4998.000000 -404.000000 2546.000000
5054.000000 -429.000000 2501.000000
5089.000000 -415.000000 2556.000000
4935.000000 -359.000000 2595.000000
5138.000000 -415.000000 2411.000000
5138.000000 -423.000000 2511.000000
5117.000000 -396.000000 2602.000000
5030.000000 -385.000000 2600.000000
5164.000000 -379.000000 2369.000000
5224.000000 -329.000000 2385.000000
5281.000000 -278.000000 2391.000000
5177.000000 -410.000000 2468.000000
5205.000000 -377.000000 2426.000000
5242.000000 -378.000000 2469.000000
5265.000000 -334.000000 2428.000000
5311.000000 -347.000000 2468.000000
5169.000000 -410.000000 2556.000000
5210.000000 -404.000000 2511.000000
5250.000000 -405.000000 2551.000000
5285.000000 -385.000000 2509.000000
5332.000000 -398.000000 2549.000000
5204.000000 -407.000000 2595.000000
5292.000000 -413.000000 2591.000000
5287.000000 -208.000000 2352.000000
5333.000000 -220.000000 2390.000000
5333.154785 -138.286270 2353.055420
5383.125977 -155.293289 2389.044922
5373.666016 -50.540451 2352.096436
5327.000000 -291.000000 2429.000000
5374.000000 -307.000000 2467.000000
5382.000000 -236.000000 2427.000000
5358.000000 -361.000000 2507.000000
5372.000000 -406.000000 2586.000000
5432.561035 -76.886154 2389.371338
5418.890137 8.204707 2354.854980
5434.000000 -251.000000 2465.000000
5435.959961 -173.559769 2425.245117
5492.733887 -196.337997 2463.335938
5401.000000 -372.000000 2545.000000
5423.248047 -321.423370 2505.303711
5471.000000 -338.000000 2543.000000
5484.000000 -273.000000 2502.000000
5536.000000 -298.000000 2540.000000
5522.000000 -362.000000 2581.000000
5475.834473 -16.763060 2390.269775
5486.237305 45.534534 2368.382080
5532.610840 41.025959 2394.469727
5564.000000 50.000000 2350.000000
5601.657227 46.425476 2411.365479
5651.000000 50.000000 2351.000000
5482.387695 -102.868332 2424.883545
5542.736328 -134.815323 2462.815918
5532.519531 -42.601170 2427.999268
5592.610840 -74.069717 2468.302490
5591.828125 7.327331 2441.972656
5643.122070 -20.550257 2473.964844
5642.895996 46.158298 2436.357422
5542.000000 -221.000000 2500.000000
5593.000000 -246.000000 2540.000000
5595.462891 -164.773392 2502.359863
5644.000000 -185.000000 2542.000000
5644.369629 -100.808090 2507.589600
5585.000000 -321.000000 2579.000000
5642.000000 -265.000000 2579.000000
5449.000000 -388.000000 2584.000000
5694.011719 -121.203407 2546.937744
5688.125977 -34.543148 2512.988037
5691.000000 -199.000000 2582.000000
5736.000000 -131.000000 2588.000000
5692.000000 50.000000 2398.000000
5716.000000 50.000000 2350.000000
5767.000000 50.000000 2412.000000
5792.000000 50.000000 2359.000000
5835.000000 50.000000 2392.000000
5876.000000 50.000000 2360.000000
5683.869629 35.105511 2483.292236
5718.000000 50.000000 2451.000000
5754.000000 50.000000 2478.000000
5801.000000 50.000000 2437.000000
5831.000000 50.000000 2476.000000
5891.000000 50.000000 2429.000000
5733.780273 -44.115891 2555.038818
5736.918457 32.889805 2526.453369
5770.845703 31.688139 2552.183594
5793.594727 49.325081 2526.004150
5848.495605 49.438801 2570.011230
5891.000000 50.000000 2528.000000
5819.682617 11.492244 2601.194092
5778.546875 -58.753143 2594.629150
5921.000000 50.000000 2389.000000
5972.000000 50.000000 2366.000000
6002.000000 50.000000 2397.000000
6035.000000 50.000000 2347.000000
6085.000000 50.000000 2406.000000
6111.000000 50.000000 2353.000000
6171.000000 50.000000 2319.000000
5930.000000 50.000000 2471.000000
5966.000000 50.000000 2428.000000
5996.000000 50.000000 2483.000000
6041.000000 50.000000 2451.000000
6067.000000 50.000000 2482.000000
6124.000000 50.000000 2431.000000
6168.000000 50.000000 2390.000000
5919.000000 50.000000 2557.000000
5955.000000 50.000000 2521.000000
6001.000000 50.000000 2550.000000
6045.000000 50.000000 2507.000000
6082.000000 50.000000 2549.000000
6116.000000 50.000000 2530.000000
6162.000000 50.000000 2482.000000
5967.000000 50.000000 2604.000000
6031.000000 50.000000 2590.000000
6111.000000 50.000000 2598.000000
6192.000000 50.000000 2437.000000
6242.000000 50.000000 2389.000000
6233.000000 50.000000 2485.000000
6196.000000 50.000000 2360.000000
6158.000000 50.000000 2555.000000
6204.000000 50.000000 2510.000000
6232.000000 50.000000 2568.000000
6271.000000 50.000000 2529.000000
6212.000000 50.000000 2608.000000
4761.714355 -246.738037 2655.142822
4673.000000 -163.000000 2701.000000
4701.000000 -147.000000 2740.000000
4784.000000 -216.000000 2700.000000
4861.000000 -294.000000 2646.000000
4807.000000 -189.000000 2738.000000
4887.000000 -267.000000 2690.000000
4728.000000 -133.000000 2779.000000
4662.000000 -89.000000 2818.000000
4757.000000 -120.000000 2820.000000
4832.000000 -169.000000 2779.000000
4962.000000 -334.000000 2644.000000
5057.000000 -361.000000 2646.000000
4912.000000 -241.000000 2732.000000
4988.000000 -308.000000 2689.000000
4860.000000 -151.000000 2817.000000
4941.700195 -215.302887 2776.813721
5012.000000 -280.000000 2732.000000
5085.000000 -344.000000 2689.000000
5150.000000 -388.000000 2642.000000
5120.000000 -338.000000 2729.000000
4963.404785 -184.294571 2815.889648
5042.000000 -263.000000 2774.000000
5077.000000 -258.000000 2817.000000
5158.000000 -337.000000 2769.000000
4992.012207 -167.129105 2857.995361
5117.114258 -257.962494 2858.978760
5244.000000 -410.000000 2635.000000
5331.000000 -419.000000 2630.000000
5187.000000 -385.000000 2681.000000
5225.000000 -385.000000 2722.000000
5284.025879 -416.430573 2676.622803
5320.000000 -412.000000 2715.000000
5195.000000 -331.000000 2811.000000
5262.021484 -381.208771 2762.948242
5298.000000 -374.000000 2802.000000
5231.992676 -321.345245 2851.977783
5373.000000 -427.000000 2671.000000
5361.000000 -413.000000 2756.000000
5338.000000 -372.000000 2844.000000
5403.000000 -415.000000 2798.000000
5416.000000 -418.000000 2627.000000
5499.000000 -405.000000 2625.000000
5569.000000 -378.000000 2622.000000
5416.000000 -431.000000 2711.000000
5462.000000 -428.000000 2668.000000
5507.000000 -438.000000 2710.000000
5543.000000 -418.000000 2666.000000
5586.000000 -423.000000 2708.000000
5615.000000 -389.000000 2664.000000
5462.000000 -438.000000 2755.000000
5500.000000 -436.000000 2797.000000
5548.000000 -440.000000 2752.000000
5587.000000 -439.000000 2795.000000
5440.000000 -408.000000 2841.000000
5536.000000 -428.000000 2840.000000
5634.000000 -336.000000 2622.000000
5627.000000 -427.000000 2751.000000
5624.000000 -432.000000 2839.000000
5688.000000 -276.000000 2621.000000
5737.000000 -211.000000 2623.000000
5658.000000 -395.000000 2706.000000
5678.000000 -343.000000 2663.000000
5722.000000 -348.000000 2704.000000
5732.000000 -285.000000 2662.000000
5782.000000 -298.000000 2704.000000
5789.000000 -228.000000 2665.000000
5666.000000 -421.000000 2794.000000
5698.000000 -393.000000 2749.000000
5745.000000 -399.000000 2793.000000
5767.000000 -355.000000 2748.000000
5823.000000 -369.000000 2790.000000
5842.000000 -320.000000 2746.000000
5709.000000 -419.000000 2839.000000
5793.000000 -403.000000 2836.000000
5884.000000 -387.000000 2833.000000
5783.000000 -142.000000 2628.000000
5831.639160 -77.163055 2636.624512
5878.204102 13.469991 2631.241943
5885.900391 48.856163 2604.050781
5850.000000 -253.000000 2706.000000
5848.000000 -173.000000 2669.000000
5917.000000 -206.000000 2708.000000
5906.407227 -114.939812 2670.022461
5906.000000 -343.000000 2789.000000
5916.000000 -282.000000 2747.000000
5978.000000 -153.000000 2708.000000
5960.000000 -65.000000 2672.000000
5984.000000 -309.000000 2789.000000
5985.000000 -239.000000 2748.000000
6052.000000 -275.000000 2788.000000
6044.000000 -194.000000 2747.000000
5971.000000 -364.000000 2832.000000
6050.000000 -342.000000 2832.000000
6107.000000 -295.000000 2830.000000
6100.000000 -218.000000 2785.000000
5924.448730 26.421059 2646.136963
6006.037109 46.159443 2635.924561
6079.391602 46.976116 2630.364014
6024.000000 -105.000000 2709.000000
6007.000000 -15.000000 2670.000000
6070.000000 -46.000000 2704.000000
6067.000000 10.000000 2670.000000
6120.000000 -11.000000 2704.000000
6136.000000 24.000000 2670.000000
6165.794922 47.731117 2639.769775
6086.000000 -131.000000 2744.000000
6138.000000 -150.000000 2780.000000
6125.000000 -72.000000 2740.000000
6174.000000 -86.000000 2780.000000
6170.000000 -24.000000 2743.000000
6150.000000 -231.000000 2824.000000
6183.000000 12.000000 2707.000000
6214.000000 -28.000000 2783.000000
6183.000000 -158.000000 2818.000000
6215.000000 -86.000000 2820.000000
6229.000000 50.000000 2632.000000
6285.000000 50.000000 2589.000000
6211.000000 36.000000 2674.000000
6250.000000 30.000000 2710.000000
6286.052734 49.933453 2673.963623
6323.000000 50.000000 2638.000000
6312.041992 46.292820 2722.175537
6360.000000 50.000000 2670.000000
6227.000000 9.000000 2746.000000
6265.000000 9.000000 2785.000000
6289.000000 30.000000 2747.000000
6326.000000 30.000000 2786.000000
6358.158691 48.612965 2759.346191
6252.073730 -23.118555 2820.988770
6300.484375 10.220394 2819.924072
6373.522461 34.348778 2831.251709
4693.000000 -82.000000 2857.000000
4788.000000 -108.000000 2858.000000
4727.000000 -77.000000 2897.000000
4821.000000 -98.000000 2896.000000
4887.000000 -132.000000 2857.000000
4675.000000 -52.000000 2936.000000
4714.000000 -50.000000 2975.000000
4764.000000 -70.000000 2936.000000
4801.000000 -64.000000 2975.000000
4855.000000 -87.000000 2936.000000
4668.000000 -36.000000 3016.000000
4710.000000 -35.000000 3056.000000
4754.000000 -47.000000 3014.000000
4793.000000 -42.000000 3053.000000
4839.000000 -57.000000 3014.000000
4891.000000 -77.000000 2975.000000
4750.000000 -33.000000 3095.000000
4832.000000 -33.000000 3093.000000
4879.000000 -48.000000 3054.000000
4918.000000 -117.000000 2897.000000
5028.000000 -163.000000 2900.000000
4952.000000 -108.000000 2938.000000
4989.000000 -102.000000 2978.000000
5065.000000 -161.000000 2941.000000
5155.000000 -256.000000 2901.000000
5099.000000 -156.000000 2984.000000
4929.000000 -69.000000 3015.000000
4966.000000 -63.000000 3056.000000
5026.000000 -97.000000 3020.000000
5061.000000 -90.000000 3059.000000
5132.000000 -149.000000 3024.000000
4917.000000 -42.000000 3093.000000
5003.000000 -56.000000 3095.000000
5094.000000 -78.000000 3101.000000
5269.061523 -315.597382 2891.851807
5191.000000 -249.000000 2941.000000
5222.000000 -231.000000 2980.000000
5163.000000 -137.000000 3065.000000
5374.000000 -364.000000 2885.000000
5304.293457 -306.842041 2932.295166
5334.418945 -289.056763 2973.993652
5406.000000 -349.000000 2927.000000
5250.000000 -213.000000 3023.000000
5278.000000 -188.000000 3062.000000
5363.474121 -268.592590 3015.860596
5197.000000 -122.000000 3103.000000
5306.000000 -169.000000 3104.000000
5391.458984 -244.443954 3058.897461
5474.000000 -396.000000 2884.000000
5571.000000 -421.000000 2884.000000
5438.000000 -331.000000 2970.000000
5508.000000 -384.000000 2928.000000
5541.000000 -370.000000 2972.000000
5604.000000 -405.000000 2929.000000
5469.000000 -313.000000 3014.000000
5501.000000 -297.000000 3060.000000
5421.184570 -226.779907 3102.560547
5661.000000 -421.000000 2884.000000
5577.000000 -355.000000 3018.000000
5646.000000 -398.000000 2976.000000
5616.000000 -345.000000 3063.000000
5535.000000 -280.000000 3105.000000
5756.000000 -422.000000 2884.000000
5848.000000 -413.000000 2878.000000
5706.000000 -420.000000 2931.000000
5754.000000 -420.000000 2978.000000
5804.000000 -421.000000 2927.000000
5855.000000 -423.000000 2971.000000
5907.000000 -422.000000 2924.000000
5689.000000 -391.000000 3022.000000
5732.000000 -382.000000 3068.000000
5796.000000 -410.000000 3020.000000
5843.000000 -401.000000 3063.000000
5906.000000 -422.000000 3017.000000
5657.000000 -332.000000 3110.000000
5773.000000 -367.000000 3112.000000
5886.000000 -396.000000 3109.000000
5945.000000 -403.000000 2878.000000
6036.000000 -393.000000 2878.000000
6102.000000 -358.000000 2877.000000
5961.000000 -428.000000 2971.000000
6005.000000 -419.000000 2925.000000
6056.000000 -432.000000 2972.000000
6087.000000 -404.000000 2923.000000
6129.000000 -403.000000 2968.000000
6146.000000 -361.000000 2920.000000
5956.000000 -428.000000 3066.000000
6012.000000 -440.000000 3020.000000
6049.000000 -431.000000 3064.000000
6096.000000 -427.000000 3016.000000
6116.595703 -400.961304 3055.913086
6147.909180 -378.453644 3002.807129
5990.000000 -417.000000 3111.000000
6077.074707 -412.136597 3106.009033
6137.074219 -382.109253 3085.992432
6154.000000 -303.000000 2871.000000
6191.000000 -229.000000 2863.000000
6226.649414 -162.111435 2856.169678
6170.921875 -344.068573 2953.620605
6188.247070 -297.226196 2908.484131
6222.807617 -303.187561 2939.906006
6227.216797 -237.673065 2897.201416
6273.548340 -260.746613 2931.700439
6271.216309 -187.294922 2892.231201
6267.638672 -105.364464 2858.034668
6177.753418 -375.106995 3033.912598
6205.973145 -350.430634 2985.886475
6243.000000 -358.000000 3020.000000
6262.000000 -317.000000 2975.000000
6307.000000 -337.000000 3012.000000
6317.000000 -280.000000 2969.000000
6318.000000 -213.000000 2929.000000
6211.000000 -378.000000 3068.000000
6285.000000 -373.000000 3058.000000
6350.000000 -356.000000 3052.000000
6363.000000 -304.000000 3008.000000
6310.432617 -56.381168 2857.560303
6362.709961 -20.901541 2858.415771
6315.541992 -138.204193 2890.872070
6367.000000 -169.000000 2929.000000
6365.309570 -99.808235 2891.684814
6367.000000 -241.000000 2967.000000
6249.000000 -390.000000 3105.000000
6324.000000 -387.000000 3098.000000
4711.000000 -25.000000 3137.000000
4789.000000 -25.000000 3136.000000
4748.000000 -20.000000 3177.000000
4710.000000 -16.000000 3213.000000
4786.000000 -12.000000 3214.000000
4827.000000 -19.000000 3172.000000
4871.000000 -28.000000 3132.000000
4746.000000 -8.000000 3254.000000
4784.000000 0.000000 3289.000000
4823.000000 -8.000000 3250.000000
4868.000000 -14.000000 3209.000000
4864.000000 -3.000000 3286.000000
4823.000000 5.000000 3325.000000
4787.783203 16.850306 3362.434570
4865.000000 13.000000 3362.000000
4954.000000 -36.000000 3132.000000
5039.000000 -44.000000 3132.000000
4911.000000 -23.000000 3170.000000
4949.000000 -15.000000 3210.000000
4992.000000 -26.000000 3169.000000
5031.000000 -14.000000 3208.000000
5076.000000 -31.000000 3173.000000
5129.000000 -67.000000 3139.000000
5115.000000 -23.000000 3212.000000
4907.000000 -10.000000 3248.000000
4947.000000 0.000000 3286.000000
4988.000000 -4.000000 3247.000000
5032.000000 8.000000 3288.000000
5072.000000 -2.000000 3248.000000
5113.000000 1.000000 3288.000000
4906.000000 5.000000 3324.000000
4949.000000 17.000000 3362.000000
4987.000000 12.000000 3328.000000
5027.000000 15.000000 3367.000000
5074.000000 10.000000 3331.000000
5229.000000 -108.000000 3142.000000
5336.000000 -152.000000 3144.000000
5166.000000 -57.000000 3179.000000
5204.000000 -51.000000 3218.000000
5264.000000 -97.000000 3183.000000
5299.000000 -88.000000 3224.000000
5369.000000 -141.000000 3187.000000
5155.000000 -18.000000 3253.000000
5194.000000 -15.000000 3295.000000
5243.000000 -47.000000 3260.000000
5281.000000 -46.000000 3300.000000
5335.000000 -83.000000 3266.000000
5401.000000 -130.000000 3230.000000
5371.000000 -78.000000 3306.000000
5152.000000 4.000000 3332.000000
5232.000000 -17.000000 3337.000000
5320.000000 -47.000000 3341.000000
5452.100586 -207.971069 3147.760254
5482.000000 -189.000000 3193.000000
5572.178711 -268.723328 3151.574463
5511.000000 -173.000000 3236.000000
5608.000000 -251.000000 3197.000000
5433.000000 -119.000000 3271.000000
5465.000000 -104.000000 3312.000000
5540.000000 -155.000000 3277.000000
5640.000000 -233.000000 3240.000000
5568.000000 -134.000000 3317.000000
5664.000000 -208.000000 3279.000000
5407.000000 -71.000000 3346.000000
5498.000000 -88.000000 3351.000000
5603.000000 -122.000000 3354.000000
5694.000000 -317.000000 3155.000000
5815.000000 -359.000000 3155.000000
5729.000000 -298.000000 3199.000000
5757.000000 -276.000000 3239.000000
5852.309570 -349.125977 3198.850586
5691.000000 -189.000000 3320.000000
5783.000000 -255.000000 3281.000000
5717.000000 -168.000000 3361.000000
5921.000000 -386.000000 3154.000000
5876.309570 -326.092468 3241.912598
5804.000000 -227.000000 3321.000000
5894.259766 -294.812744 3284.539063
5822.000000 -195.000000 3362.000000
5906.501465 -255.403290 3324.294922
6017.000000 -396.000000 3154.000000
6090.276367 -379.655243 3140.595215
5947.000000 -363.000000 3197.000000
5968.933594 -335.967529 3240.272949
6031.000000 -359.000000 3192.000000
6051.818848 -335.230164 3229.597656
6111.626953 -363.988373 3172.632813
5979.166992 -292.305267 3277.019775
5991.093262 -255.994049 3313.134277
6072.861816 -318.172485 3262.593262
5917.000000 -207.000000 3360.000000
6009.502930 -231.203552 3350.922363
6166.939941 -378.384705 3118.875000
6141.167969 -360.187073 3206.745361
6100.113281 -308.692444 3298.157959
6169.000000 -351.000000 3244.000000
6127.159668 -294.741974 3335.538086
6199.000000 -381.000000 3155.000000
6233.000000 -383.000000 3193.000000
6285.000000 -398.000000 3145.000000
6318.000000 -400.000000 3189.000000
6360.000000 -395.000000 3142.000000
6196.000000 -343.000000 3283.000000
6263.000000 -383.000000 3236.000000
6291.000000 -374.000000 3279.000000
6224.000000 -332.000000 3324.000000
6151.541016 -280.135193 3374.673340
6250.000000 -315.000000 3366.000000
4827.000000 24.000000 3400.000000
4867.000000 30.000000 3440.000000
5109.000000 11.000000 3367.000000
4906.000000 22.000000 3404.000000
4949.000000 24.000000 3445.000000
4988.000000 20.000000 3402.000000
5035.000000 18.000000 3445.000000
5073.000000 15.000000 3408.000000
5112.000000 16.000000 3448.000000
4911.000000 32.000000 3488.000000
4948.000000 32.000000 3527.000000
4994.000000 24.000000 3485.000000
5032.000000 26.000000 3521.000000
5072.000000 19.000000 3482.000000
5117.000000 22.000000 3526.000000
4998.000000 32.000000 3558.000000
5035.000000 34.000000 3600.000000
5072.000000 28.000000 3566.000000
5121.000000 31.000000 3598.000000
5274.000000 -21.000000 3376.000000
5357.000000 -44.000000 3380.000000
5188.000000 1.000000 3372.000000
5146.000000 12.000000 3408.000000
5187.000000 8.000000 3450.000000
5230.000000 -3.000000 3413.000000
5271.000000 -6.000000 3453.000000
5313.000000 -22.000000 3416.000000
5353.000000 -19.000000 3457.000000
5151.000000 16.000000 3488.000000
5190.784668 15.097652 3529.440674
5227.000000 4.000000 3492.000000
5270.000000 4.000000 3532.000000
5312.000000 -5.000000 3496.000000
5352.000000 -1.000000 3534.000000
5153.985352 23.923910 3566.031250
5190.000000 26.000000 3606.000000
5228.000000 15.000000 3568.000000
5270.000000 16.000000 3603.000000
5311.000000 8.000000 3569.000000
5352.000000 14.000000 3607.000000
5394.000000 -38.000000 3419.000000
5392.000000 -14.000000 3495.000000
5392.000000 5.000000 3570.000000
5442.000000 -59.000000 3385.000000
5532.000000 -74.000000 3389.000000
5433.000000 -30.000000 3457.000000
5479.000000 -48.000000 3421.000000
5518.000000 -39.000000 3460.000000
5570.000000 -66.000000 3426.000000
5635.000000 -111.000000 3394.000000
5607.000000 -59.000000 3466.000000
5431.000000 -5.000000 3532.000000
5472.000000 -20.000000 3495.000000
5512.000000 -12.000000 3534.000000
5557.000000 -33.000000 3500.000000
5596.000000 -25.000000 3539.000000
5644.000000 -49.000000 3504.000000
5428.000000 12.000000 3608.000000
5469.000000 3.000000 3571.000000
5510.000000 8.000000 3610.000000
5550.000000 -6.000000 3574.000000
5594.000000 1.000000 3612.000000
5635.000000 -19.000000 3577.000000
5739.000000 -142.000000 3400.000000
5839.000000 -160.000000 3399.000000
5667.000000 -96.000000 3434.000000
5699.000000 -80.000000 3471.000000
5764.000000 -116.000000 3436.000000
5788.000000 -93.000000 3475.000000
5855.000000 -125.000000 3436.000000
5928.000000 -167.000000 3394.000000
5878.000000 -101.000000 3471.000000
5681.000000 -41.000000 3543.000000
5730.000000 -67.000000 3509.000000
5763.000000 -59.000000 3549.000000
5816.000000 -76.000000 3512.000000
5848.000000 -65.000000 3546.000000
5904.000000 -85.000000 3507.000000
5672.000000 -20.000000 3615.000000
5715.000000 -39.000000 3583.000000
5797.000000 -52.000000 3585.000000
5883.000000 -59.000000 3585.000000
6036.978516 -216.858887 3389.342773
5949.000000 -143.000000 3431.000000
5978.000000 -132.000000 3468.000000
6062.000000 -201.000000 3425.000000
6087.000000 -185.000000 3465.000000
6175.716309 -263.703583 3415.883789
5940.000000 -84.000000 3546.000000
6007.000000 -125.000000 3508.000000
6037.000000 -118.000000 3546.000000
6113.000000 -169.000000 3503.000000
5973.000000 -83.000000 3586.000000
6069.000000 -109.000000 3585.000000
6199.416992 -239.492752 3457.756592
5075.458496 37.129452 3633.084961
5124.000000 43.000000 3674.000000
5154.526367 37.487061 3641.949463
5197.978027 39.886311 3681.046631
5234.871094 28.459665 3641.263916
5270.830566 31.290655 3679.346436
5308.000000 22.000000 3640.000000
5350.000000 27.000000 3683.000000
5387.000000 19.000000 3642.000000
5153.658691 47.519733 3714.741455
5232.871582 41.337551 3713.271973
5282.811523 42.028538 3759.398926
5309.852539 34.383572 3717.301025
5354.000000 37.000000 3767.000000
5394.478516 28.817085 3724.066162
5433.000000 22.000000 3684.000000
5472.000000 17.000000 3646.000000
5512.000000 20.000000 3686.000000
5548.000000 13.000000 3648.000000
5591.000000 15.000000 3686.000000
5630.000000 -2.000000 3649.000000
5436.701172 31.748215 3763.611328
5472.000000 25.000000 3727.000000
5516.652832 29.546257 3768.709961
5556.000000 25.000000 3728.000000
5592.000000 20.000000 3760.000000
5629.000000 5.000000 3725.000000
5393.659180 39.241425 3808.722168
5476.964844 34.852104 3797.072266
5558.989746 34.956375 3798.021240
5629.000000 14.000000 3802.000000
5751.000000 -41.000000 3621.000000
5835.000000 -50.000000 3623.000000
5669.000000 -11.000000 3690.000000
5709.000000 -26.000000 3655.000000
5747.000000 -29.000000 3695.000000
5789.000000 -43.000000 3660.000000
5828.000000 -43.000000 3699.000000
5873.000000 -50.000000 3661.000000
5669.000000 -2.000000 3768.000000
5708.000000 -16.000000 3730.000000
5745.000000 -19.000000 3770.000000
5785.000000 -33.000000 3735.000000
5867.000000 -43.000000 3738.000000
5911.000000 -53.000000 3700.000000
5921.000000 -62.000000 3623.000000
6009.000000 -81.000000 3626.000000
5958.000000 -65.000000 3663.000000
3 0 2 1
3 3 1 2
3 3 5 4
3 6 7 4
3 8 10 9
3 11 9 10
3 11 0 9
3 11 2 0
3 11 12 2
3 13 2 12
3 13 3 2
3 13 5 3
3 7 15 14
3 16 14 15
3 16 18 17
3 16 19 14
3 16 17 19
3 6 4 5
3 6 20 15
3 6 15 7
3 21 15 20
3 21 22 18
3 21 16 15
3 21 18 16
3 23 25 24
3 26 24 25
3 26 28 27
3 29 27 28
3 29 31 30
3 32 30 31
3 33 17 18
3 33 34 25
3 33 23 17
3 33 25 23
3 35 25 34
3 35 36 28
3 35 26 25
3 35 28 26
3 37 28 36
3 37 38 31
3 37 29 28
3 37 31 29
3 39 31 38
3 40 18 22
3 40 41 34
3 40 33 18
3 40 34 33
3 42 34 41
3 42 43 36
3 42 35 34
3 42 36 35
3 44 36 43
3 44 45 38
3 44 37 36
3 44 38 37
3 46 6 5
3 46 20 6
3 47 21 20
3 48 38 45
3 32 50 49
3 32 51 30
3 32 49 51
3 52 49 50
3 52 54 53
3 52 55 49
3 52 53 55
3 56 53 54
3 56 58 57
3 56 59 53
3 56 57 59
3 60 57 58
3 60 61 57
3 39 62 50
3 39 32 31
3 39 50 32
3 63 50 62
3 63 64 54
3 63 52 50
3 63 54 52
3 65 54 64
3 65 66 58
3 65 56 54
3 65 58 56
3 67 58 66
3 67 60 58
3 48 68 62
3 48 39 38
3 48 62 39
3 69 62 68
3 69 70 64
3 69 63 62
3 69 64 63
3 71 64 70
3 71 72 66
3 71 65 64
3 71 66 65
3 73 66 72
3 73 67 66
3 60 75 74
3 60 74 61
3 76 74 75
3 76 78 77
3 76 79 74
3 76 77 79
3 80 77 78
3 80 82 81
3 83 81 82
3 67 84 75
3 67 75 60
3 85 75 84
3 85 86 78
3 85 76 75
3 85 78 76
3 87 78 86
3 87 88 82
3 87 80 78
3 87 82 80
3 89 82 88
3 89 83 82
3 73 90 84
3 73 84 67
3 91 84 90
3 91 92 86
3 91 85 84
3 91 86 85
3 93 86 92
3 93 94 88
3 93 87 86
3 93 88 87
3 95 88 94
3 95 89 88
3 89 97 96
3 89 96 83
3 98 96 97
3 95 99 97
3 95 97 89
3 100 97 99
3 100 102 101
3 100 98 97
3 100 101 98
3 103 101 102
3 103 105 104
3 103 106 101
3 103 104 106
3 107 104 105
3 108 110 109
3 111 109 110
3 112 110 108
3 113 111 110
3 114 116 115
3 117 115 116
3 117 118 10
3 117 8 115
3 117 10 8
3 119 10 118
3 119 120 12
3 119 11 10
3 119 12 11
3 111 121 116
3 111 114 109
3 111 116 114
3 122 116 121
3 122 123 118
3 122 117 116
3 122 118 117
3 124 118 123
3 124 125 120
3 124 119 118
3 124 120 119
3 126 122 121
3 127 12 120
3 127 13 12
3 128 120 125
3 129 128 125
3 113 121 111
3 126 123 122
3 130 124 123
3 130 125 124
3 13 131 5
3 46 5 131
3 46 132 20
3 47 20 132
3 47 133 22
3 47 22 21
3 127 134 131
3 127 131 13
3 135 131 134
3 135 136 132
3 135 46 131
3 135 132 46
3 137 132 136
3 137 138 133
3 137 47 132
3 137 133 47
3 128 139 134
3 128 127 120
3 128 134 127
3 140 134 139
3 140 141 136
3 140 135 134
3 140 136 135
3 142 136 141
3 142 143 138
3 142 137 136
3 142 138 137
3 129 139 128
3 144 140 139
3 144 141 140
3 145 142 141
3 145 143 142
3 146 22 133
3 146 147 41
3 146 40 22
3 146 41 40
3 148 41 147
3 148 149 43
3 148 42 41
3 148 43 42
3 150 43 149
3 150 44 43
3 150 45 44
3 151 133 138
3 151 152 147
3 151 146 133
3 151 147 146
3 153 147 152
3 153 148 147
3 153 149 148
3 154 138 143
3 154 151 138
3 154 152 151
3 155 154 143
3 150 156 45
3 157 45 156
3 153 158 149
3 159 149 158
3 159 160 156
3 159 150 149
3 159 156 150
3 154 161 152
3 162 152 161
3 162 163 158
3 162 153 152
3 162 158 153
3 164 158 163
3 164 165 160
3 164 159 158
3 164 160 159
3 155 161 154
3 166 165 164
3 157 167 68
3 157 48 45
3 157 68 48
3 168 68 167
3 168 169 70
3 168 69 68
3 168 70 69
3 170 70 169
3 170 171 72
3 170 71 70
3 170 72 71
3 172 72 171
3 172 73 72
3 173 156 160
3 173 174 167
3 173 157 156
3 173 167 157
3 175 167 174
3 175 176 169
3 175 168 167
3 175 169 168
3 177 169 176
3 177 178 171
3 177 170 169
3 177 171 170
3 179 171 178
3 179 172 171
3 180 160 165
3 180 181 174
3 180 173 160
3 180 174 173
3 182 174 181
3 182 183 176
3 182 175 174
3 182 176 175
3 184 176 183
3 184 177 176
3 184 178 177
3 185 180 165
3 185 181 180
3 186 182 181
3 187 162 161
3 187 163 162
3 166 164 163
3 186 183 182
3 184 188 178
3 189 178 188
3 189 179 178
3 190 184 183
3 190 188 184
3 191 189 188
3 172 192 90
3 172 90 73
3 193 90 192
3 193 194 92
3 193 91 90
3 193 92 91
3 195 92 194
3 195 196 94
3 195 93 92
3 195 94 93
3 197 94 196
3 197 95 94
3 179 198 192
3 179 192 172
3 199 192 198
3 199 200 194
3 199 193 192
3 199 194 193
3 201 194 200
3 201 202 196
3 201 195 194
3 201 196 195
3 203 196 202
3 203 197 196
3 189 204 198
3 189 198 179
3 205 198 204
3 205 206 200
3 205 199 198
3 205 200 199
3 207 200 206
3 207 208 202
3 207 201 200
3 207 202 201
3 209 202 208
3 209 203 202
3 210 207 206
3 191 204 189
3 211 205 204
3 211 206 205
3 197 212 99
3 197 99 95
3 213 99 212
3 213 214 102
3 213 100 99
3 213 102 100
3 215 102 214
3 215 216 105
3 215 103 102
3 215 105 103
3 217 105 216
3 217 107 105
3 217 218 107
3 203 219 212
3 203 212 197
3 220 212 219
3 220 221 214
3 220 213 212
3 220 214 213
3 222 214 221
3 222 223 216
3 222 215 214
3 222 216 215
3 224 216 223
3 224 217 216
3 224 225 217
3 209 226 219
3 209 219 203
3 227 219 226
3 227 228 221
3 227 220 219
3 227 221 220
3 229 221 228
3 229 230 223
3 229 222 221
3 229 223 222
3 231 223 230
3 231 224 223
3 231 232 224
3 233 228 227
3 234 229 228
3 234 230 229
3 235 231 230
3 217 225 218
3 224 232 225
3 236 225 232
3 236 238 237
3 236 239 225
3 236 237 239
3 231 240 232
3 241 232 240
3 241 242 238
3 241 236 232
3 241 238 236
3 243 238 242
3 244 241 240
3 112 245 110
3 113 110 245
3 246 247 245
3 246 245 112
3 248 245 247
3 248 250 249
3 248 113 245
3 248 249 113
3 251 249 250
3 252 247 253
3 252 254 250
3 252 248 247
3 252 250 248
3 255 250 254
3 255 251 250
3 113 249 121
3 126 121 249
3 126 256 123
3 130 123 256
3 130 257 125
3 251 258 256
3 251 126 249
3 251 256 126
3 259 256 258
3 259 130 256
3 259 257 130
3 255 260 258
3 255 258 251
3 261 258 260
3 261 259 258
3 261 262 259
3 129 125 257
3 259 262 257
3 263 257 262
3 263 265 264
3 263 129 257
3 263 264 129
3 261 266 262
3 267 262 266
3 267 268 265
3 267 263 262
3 267 265 263
3 269 265 268
3 270 267 266
3 271 269 268
3 129 264 139
3 144 139 264
3 144 272 141
3 145 141 272
3 145 273 143
3 274 264 265
3 274 275 272
3 274 144 264
3 274 272 144
3 276 272 275
3 276 277 273
3 276 145 272
3 276 273 145
3 269 278 275
3 269 274 265
3 269 275 274
3 279 275 278
3 279 280 277
3 279 276 275
3 279 277 276
3 271 278 269
3 281 279 278
3 281 280 279
3 155 143 273
3 282 273 277
3 282 155 273
3 283 277 280
3 283 282 277
3 284 283 280
3 284 285 283
3 155 286 161
3 187 161 286
3 187 287 163
3 166 163 287
3 166 288 165
3 185 165 288
3 282 289 286
3 282 286 155
3 290 286 289
3 290 291 287
3 290 187 286
3 290 287 187
3 292 287 291
3 292 293 288
3 292 166 287
3 292 288 166
3 294 288 293
3 294 185 288
3 283 285 289
3 283 289 282
3 295 289 285
3 295 296 291
3 295 290 289
3 295 291 290
3 297 291 296
3 297 298 293
3 297 292 291
3 297 293 292
3 299 295 285
3 299 296 295
3 300 297 296
3 300 298 297
3 185 301 181
3 186 181 301
3 294 301 185
3 302 293 298
3 302 294 293
3 303 302 298
3 186 304 183
3 190 183 304
3 190 305 188
3 191 188 305
3 294 306 301
3 307 301 306
3 307 308 304
3 307 186 301
3 307 304 186
3 309 304 308
3 309 310 305
3 309 190 304
3 309 305 190
3 311 305 310
3 311 191 305
3 302 312 306
3 302 306 294
3 313 306 312
3 313 314 308
3 313 307 306
3 313 308 307
3 315 308 314
3 315 316 310
3 315 309 308
3 315 310 309
3 317 310 316
3 317 311 310
3 303 312 302
3 318 313 312
3 318 314 313
3 319 315 314
3 319 316 315
3 320 317 316
3 191 321 204
3 211 204 321
3 211 322 206
3 210 206 322
3 210 323 208
3 210 208 207
3 324 208 323
3 324 209 208
3 311 325 321
3 311 321 191
3 326 321 325
3 326 327 322
3 326 211 321
3 326 322 211
3 328 322 327
3 328 210 322
3 328 323 210
3 317 329 325
3 317 325 311
3 330 326 325
3 320 329 317
3 328 331 323
3 332 323 331
3 332 324 323
3 330 325 329
3 330 333 327
3 330 327 326
3 334 327 333
3 334 335 331
3 334 328 327
3 334 331 328
3 336 331 335
3 336 332 331
3 337 330 329
3 337 333 330
3 338 334 333
3 338 335 334
3 339 336 335
3 339 340 336
3 324 341 226
3 324 226 209
3 233 226 341
3 233 342 228
3 233 227 226
3 234 228 342
3 234 343 230
3 235 230 343
3 235 240 231
3 332 344 341
3 332 341 324
3 345 341 344
3 345 346 342
3 345 233 341
3 345 342 233
3 347 342 346
3 347 348 343
3 347 234 342
3 347 343 234
3 349 343 348
3 349 235 343
3 349 350 235
3 336 340 344
3 336 344 332
3 351 344 340
3 351 352 346
3 351 345 344
3 351 346 345
3 353 346 352
3 353 354 348
3 353 347 346
3 353 348 347
3 355 349 348
3 356 351 340
3 356 352 351
3 355 348 354
3 355 358 357
3 355 357 349
3 359 353 352
3 359 354 353
3 360 355 354
3 360 358 355
3 235 350 240
3 244 240 350
3 244 361 242
3 244 242 241
3 362 242 361
3 362 243 242
3 349 357 350
3 363 350 357
3 363 364 361
3 363 244 350
3 363 361 244
3 365 361 364
3 365 367 366
3 365 362 361
3 365 366 362
3 368 366 367
3 369 357 358
3 369 370 364
3 369 363 357
3 369 364 363
3 371 364 370
3 371 372 367
3 371 365 364
3 371 367 365
3 373 367 372
3 373 368 367
3 374 369 358
3 374 370 369
3 375 371 370
3 375 372 371
3 376 373 372
3 377 252 253
3 377 254 252
3 378 255 254
3 378 260 255
3 377 379 254
3 378 254 379
3 378 380 260
3 381 260 380
3 382 383 379
3 382 379 377
3 384 379 383
3 384 385 380
3 384 378 379
3 384 380 378
3 386 380 385
3 386 381 380
3 387 388 383
3 387 383 382
3 389 383 388
3 389 390 385
3 389 384 383
3 389 385 384
3 391 385 390
3 391 386 385
3 391 392 386
3 393 389 388
3 393 390 389
3 394 391 390
3 394 395 391
3 381 261 260
3 381 266 261
3 270 268 267
3 386 396 381
3 381 396 266
3 270 266 396
3 270 397 268
3 271 268 397
3 386 392 396
3 398 396 392
3 398 399 397
3 398 270 396
3 398 397 270
3 400 397 399
3 400 402 401
3 400 271 397
3 400 401 271
3 391 395 392
3 403 392 395
3 403 404 399
3 403 398 392
3 403 399 398
3 405 399 404
3 405 406 402
3 405 400 399
3 405 402 400
3 407 402 406
3 408 403 395
3 408 404 403
3 409 405 404
3 409 406 405
3 410 407 406
3 271 401 278
3 281 278 401
3 281 411 280
3 412 401 402
3 412 413 411
3 412 281 401
3 412 411 281
3 407 414 413
3 407 412 402
3 407 413 412
3 410 414 407
3 284 280 411
3 284 415 285
3 416 411 413
3 416 417 415
3 416 284 411
3 416 415 284
3 418 415 417
3 419 413 414
3 419 420 417
3 419 416 413
3 419 417 416
3 421 417 420
3 421 418 417
3 422 419 414
3 422 420 419
3 423 421 420
3 423 424 421
3 299 285 415
3 299 425 296
3 300 296 425
3 300 426 298
3 303 298 426
3 418 427 425
3 418 299 415
3 418 425 299
3 428 425 427
3 428 429 426
3 428 300 425
3 428 426 300
3 430 426 429
3 430 303 426
3 421 424 427
3 421 427 418
3 431 427 424
3 431 432 429
3 431 428 427
3 431 429 428
3 433 431 424
3 433 432 431
3 430 434 303
3 435 429 432
3 435 437 436
3 435 430 429
3 435 436 430
3 438 435 432
3 438 437 435
3 303 434 312
3 318 312 434
3 318 439 314
3 319 314 439
3 319 440 316
3 320 316 440
3 430 436 434
3 441 434 436
3 441 442 439
3 441 318 434
3 441 439 318
3 443 439 442
3 443 444 440
3 443 319 439
3 443 440 319
3 445 440 444
3 446 436 437
3 446 447 442
3 446 441 436
3 446 442 441
3 448 442 447
3 448 449 444
3 448 443 442
3 448 444 443
3 450 444 449
3 451 446 437
3 451 447 446
3 452 448 447
3 452 449 448
3 453 450 449
3 445 320 440
3 450 445 444
3 320 454 329
3 337 329 454
3 337 455 333
3 338 333 455
3 338 456 335
3 339 335 456
3 445 457 454
3 445 454 320
3 458 454 457
3 458 459 455
3 458 337 454
3 458 455 337
3 460 455 459
3 460 461 456
3 460 338 455
3 460 456 338
3 462 456 461
3 462 339 456
3 450 463 457
3 450 457 445
3 464 457 463
3 464 465 459
3 464 458 457
3 464 459 458
3 466 459 465
3 466 467 461
3 466 460 459
3 466 461 460
3 468 461 467
3 468 462 461
3 453 463 450
3 469 464 463
3 469 465 464
3 470 466 465
3 470 467 466
3 471 468 467
3 339 472 340
3 356 340 472
3 462 472 339
3 356 473 352
3 359 352 473
3 359 474 354
3 360 354 474
3 462 475 472
3 476 472 475
3 476 477 473
3 476 356 472
3 476 473 356
3 478 473 477
3 478 479 474
3 478 359 473
3 478 474 359
3 480 474 479
3 480 360 474
3 480 481 360
3 468 482 475
3 468 475 462
3 483 475 482
3 483 484 477
3 483 476 475
3 483 477 476
3 485 477 484
3 485 486 479
3 485 478 477
3 485 479 478
3 487 479 486
3 487 480 479
3 487 488 480
3 471 482 468
3 489 483 482
3 489 484 483
3 490 485 484
3 490 486 485
3 491 487 486
3 491 492 487
3 360 481 358
3 374 358 481
3 374 493 370
3 375 370 493
3 375 494 372
3 376 372 494
3 480 488 481
3 495 481 488
3 495 496 493
3 495 374 481
3 495 493 374
3 497 493 496
3 497 375 493
3 497 494 375
3 487 492 488
3 498 488 492
3 498 495 488
3 498 496 495
3 489 499 484
3 490 484 499
3 490 500 486
3 491 486 500
3 393 388 501
3 393 502 390
3 394 390 502
3 503 501 504
3 503 505 502
3 503 393 501
3 503 502 393
3 506 502 505
3 506 394 502
3 506 507 394
3 508 509 505
3 508 503 504
3 508 505 503
3 510 505 509
3 510 512 511
3 510 506 505
3 510 511 506
3 513 509 514
3 513 515 512
3 513 510 509
3 513 512 510
3 394 507 395
3 506 511 507
3 408 395 507
3 408 516 404
3 409 404 516
3 409 517 406
3 410 406 517
3 518 507 511
3 518 519 516
3 518 408 507
3 518 516 408
3 520 516 519
3 520 521 517
3 520 409 516
3 520 517 409
3 522 517 521
3 522 524 523
3 522 410 517
3 522 523 410
3 525 511 512
3 525 526 519
3 525 518 511
3 525 519 518
3 527 519 526
3 527 528 521
3 527 520 519
3 527 521 520
3 529 521 528
3 529 530 524
3 529 522 521
3 529 524 522
3 531 512 515
3 531 532 526
3 531 525 512
3 531 526 525
3 533 526 532
3 533 534 528
3 533 527 526
3 533 528 527
3 535 529 528
3 535 530 529
3 410 523 414
3 422 414 523
3 422 536 420
3 423 420 536
3 423 537 424
3 538 523 524
3 538 539 536
3 538 422 523
3 538 536 422
3 540 536 539
3 540 541 537
3 540 423 536
3 540 537 423
3 542 537 541
3 542 433 537
3 543 524 530
3 543 544 539
3 543 538 524
3 543 539 538
3 545 539 544
3 545 546 541
3 545 540 539
3 545 541 540
3 547 541 546
3 547 549 548
3 547 542 541
3 547 548 542
3 550 543 530
3 550 544 543
3 551 545 544
3 551 546 545
3 552 547 546
3 552 549 547
3 433 424 537
3 433 553 432
3 438 432 553
3 542 548 553
3 542 553 433
3 554 553 548
3 438 555 437
3 451 437 555
3 554 556 555
3 554 438 553
3 554 555 438
3 557 555 556
3 557 451 555
3 558 548 549
3 558 559 556
3 558 554 548
3 558 556 554
3 560 556 559
3 560 562 561
3 560 557 556
3 560 561 557
3 563 561 562
3 564 558 549
3 564 559 558
3 565 560 559
3 565 562 560
3 566 563 562
3 451 567 447
3 452 447 567
3 452 568 449
3 453 449 568
3 557 561 567
3 557 567 451
3 569 567 561
3 569 570 568
3 569 452 567
3 569 568 452
3 571 568 570
3 571 453 568
3 563 572 570
3 563 569 561
3 563 570 569
3 573 570 572
3 573 571 570
3 566 572 563
3 574 573 572
3 571 576 575
3 571 575 453
3 573 577 576
3 573 576 571
3 578 576 577
3 574 577 573
3 579 578 577
3 579 580 578
3 453 575 463
3 469 463 575
3 469 581 465
3 470 465 581
3 470 582 467
3 471 467 582
3 583 575 576
3 583 584 581
3 583 469 575
3 583 581 469
3 585 581 584
3 585 586 582
3 585 470 581
3 585 582 470
3 587 582 586
3 587 471 582
3 578 580 584
3 578 583 576
3 578 584 583
3 588 584 580
3 588 589 586
3 588 585 584
3 588 586 585
3 590 586 589
3 590 587 586
3 591 588 580
3 591 589 588
3 592 590 589
3 587 594 593
3 587 593 471
3 590 595 594
3 590 594 587
3 596 594 595
3 592 595 590
3 597 596 595
3 471 593 482
3 489 482 593
3 598 593 594
3 598 599 499
3 598 489 593
3 598 499 489
3 600 499 599
3 600 601 500
3 600 490 499
3 600 500 490
3 602 500 601
3 602 491 500
3 596 603 599
3 596 598 594
3 596 599 598
3 604 599 603
3 604 605 601
3 604 600 599
3 604 601 600
3 597 603 596
3 606 603 607
3 606 608 605
3 606 604 603
3 606 605 604
3 609 610 515
3 609 513 514
3 609 515 513
3 535 528 534
3 535 611 530
3 612 515 610
3 612 613 532
3 612 531 515
3 612 532 531
3 614 532 613
3 614 615 534
3 614 533 532
3 614 534 533
3 616 534 615
3 616 617 611
3 616 535 534
3 616 611 535
3 618 619 613
3 618 612 610
3 618 613 612
3 620 613 619
3 620 621 615
3 620 614 613
3 620 615 614
3 622 615 621
3 622 623 617
3 622 616 615
3 622 617 616
3 624 625 621
3 624 620 619
3 624 621 620
3 626 621 625
3 626 627 623
3 626 622 621
3 626 623 622
3 550 530 611
3 551 628 546
3 552 546 628
3 552 629 549
3 550 630 544
3 551 544 630
3 631 611 617
3 631 632 630
3 631 550 611
3 631 630 550
3 633 630 632
3 633 634 628
3 633 551 630
3 633 628 551
3 635 628 634
3 635 636 629
3 635 552 628
3 635 629 552
3 637 617 623
3 637 638 632
3 637 631 617
3 637 632 631
3 639 632 638
3 639 640 634
3 639 633 632
3 639 634 633
3 641 634 640
3 641 642 636
3 641 635 634
3 641 636 635
3 643 623 627
3 643 644 638
3 643 637 623
3 643 638 637
3 645 638 644
3 645 646 640
3 645 639 638
3 645 640 639
3 647 640 646
3 647 648 642
3 647 641 640
3 647 642 641
3 649 629 636
3 650 636 642
3 651 642 648
3 564 549 629
3 564 652 559
3 565 559 652
3 565 653 562
3 566 562 653
3 649 654 652
3 649 564 629
3 649 652 564
3 655 652 654
3 655 656 653
3 655 565 652
3 655 653 565
3 657 653 656
3 657 659 658
3 657 566 653
3 657 658 566
3 650 660 654
3 650 649 636
3 650 654 649
3 661 654 660
3 661 662 656
3 661 655 654
3 661 656 655
3 663 656 662
3 663 664 659
3 663 657 656
3 663 659 657
3 665 659 664
3 651 666 660
3 651 650 642
3 651 660 650
3 667 660 666
3 667 668 662
3 667 661 660
3 667 662 661
3 669 662 668
3 669 670 664
3 669 663 662
3 669 664 663
3 671 664 670
3 671 665 664
3 566 658 572
3 574 572 658
3 574 672 577
3 579 577 672
3 579 673 580
3 591 580 673
3 674 658 659
3 674 675 672
3 674 574 658
3 674 672 574
3 676 672 675
3 676 677 673
3 676 579 672
3 676 673 579
3 678 673 677
3 678 680 679
3 678 591 673
3 665 681 675
3 665 674 659
3 665 675 674
3 682 675 681
3 682 683 677
3 682 676 675
3 682 677 676
3 684 677 683
3 684 685 680
3 684 678 677
3 684 680 678
3 686 680 685
3 671 687 681
3 671 681 665
3 688 681 687
3 688 682 681
3 688 683 682
3 689 684 683
3 689 685 684
3 690 686 685
3 591 679 589
3 592 589 679
3 592 691 595
3 597 595 691
3 678 679 591
3 692 679 680
3 692 592 679
3 686 692 680
3 692 693 691
3 692 691 592
3 694 691 693
3 694 695 607
3 694 597 691
3 694 607 597
3 696 607 695
3 686 697 693
3 686 693 692
3 698 693 697
3 698 699 695
3 698 694 693
3 698 695 694
3 700 695 699
3 700 696 695
3 690 697 686
3 701 698 697
3 701 699 698
3 702 700 699
3 597 607 603
3 696 703 608
3 696 606 607
3 696 608 606
3 700 703 696
3 704 705 627
3 704 626 625
3 704 627 626
3 706 627 705
3 706 707 644
3 706 643 627
3 706 644 643
3 708 644 707
3 708 709 646
3 708 645 644
3 708 646 645
3 710 646 709
3 710 711 648
3 710 647 646
3 710 648 647
3 712 648 711
3 713 706 705
3 713 707 706
3 714 715 709
3 714 708 707
3 714 709 708
3 716 709 715
3 716 717 711
3 716 710 709
3 716 711 710
3 718 711 717
3 712 719 666
3 712 651 648
3 712 666 651
3 720 666 719
3 720 721 668
3 720 667 666
3 720 668 667
3 722 668 721
3 722 723 670
3 722 669 668
3 722 670 669
3 724 670 723
3 718 725 719
3 718 712 711
3 718 719 712
3 726 719 725
3 726 727 721
3 726 720 719
3 726 721 720
3 728 721 727
3 728 729 723
3 728 722 721
3 728 723 722
3 730 723 729
3 730 724 723
3 731 718 717
3 731 725 718
3 732 726 725
3 732 727 726
3 733 728 727
3 733 729 728
3 734 730 729
3 724 671 670
3 688 735 683
3 689 683 735
3 689 736 685
3 690 685 736
3 724 737 687
3 724 687 671
3 738 687 737
3 738 739 735
3 738 688 687
3 738 735 688
3 740 735 739
3 740 741 736
3 740 689 735
3 740 736 689
3 742 736 741
3 742 690 736
3 730 743 737
3 730 737 724
3 744 737 743
3 744 745 739
3 744 738 737
3 744 739 738
3 746 739 745
3 746 740 739
3 746 741 740
3 747 742 741
3 734 743 730
3 747 748 742
3 690 749 697
3 701 697 749
3 701 750 699
3 702 699 750
3 742 748 749
3 742 749 690
3 751 749 748
3 751 701 749
3 751 750 701
