ply
format ascii 1.0
element vertex 10
property float32 x
property float32 y
property float32 z
element face 12
property list uint8 int32 vertex_indices
end_header
0.000000 0.000000 0.000000
0.000000 100000.000000 0.000000
100000.000000 0.000000 0.000000
0.000000 50515.000000 0.000000
0.000000 27120.000000 0.000000
4310.000000 28802.000000 0.000000
4310.000000 28803.000000 0.000000
4112.000000 29801.000000 0.000000
2514.000000 27779.000000 0.000000
3721.000000 28466.000000 0.000000
3 9 8 7
3 8 4 7
3 8 9 2
3 3 7 4
3 4 8 0
3 7 3 1
3 7 1 2
3 0 8 2
3 5 6 2
3 9 6 5
3 7 5 9
3 2 6 7
